<svg width="78" height="78" viewBox="0 0 78 78" fill="none" xmlns="http://www.w3.org/2000/svg">
<path fill-rule="evenodd" clip-rule="evenodd" d="M11.5556 58.1289C12.4089 58.1289 12.48 57.7733 13.0489 57.6311C13.4756 58.4133 14.8267 60.3333 15.4667 60.9733C15.7511 61.2578 15.7511 61.3289 15.9644 61.6133C18.0267 64.0311 21.0844 66.0222 23.7867 67.6578C26.7733 69.4356 32.96 71 36.6578 71C41.6355 71 44.8355 70.8578 49.6 68.9378C52.16 67.9422 54.1511 66.8044 56.2844 65.1689C56.8533 64.7422 56.9244 64.8133 56.9955 64.3867C56.2844 64.2444 55.36 63.4622 55.0044 62.8222C54.3644 61.8267 52.7289 55.8533 52.4444 54.4311C52.0889 54.5022 52.0178 54.7156 51.6622 54.9289C51.3778 55.1422 51.3067 55.2844 51.0222 55.4978C49.6711 56.5644 48.7467 57.2044 47.3244 57.9867L45.6889 58.84C44.7644 59.2667 44.0533 59.5511 42.9867 59.8356C39.5022 60.8311 36.16 60.76 32.7467 59.6222C29.0489 58.4133 25.4933 55.9244 23.0044 52.8667C22.7911 52.5822 22.4356 52.2978 22.3644 51.8711C23.36 51.3733 24.2133 51.0178 24.2133 49.5956C24.2133 48.3867 22.5778 47.8178 21.6533 47.3911C20.5867 46.8222 19.52 46.3956 18.4533 45.8267C17.5289 45.4 12.6222 42.9111 11.9822 42.84C10.1333 42.7689 10.2044 44.6889 10.1333 45.6844C9.99111 47.1067 10.1333 48.9556 10.1333 50.4489C10.1333 51.8 9.70667 56.28 10.2756 57.2044C10.56 57.7022 10.9867 58.0578 11.7689 58.0578L11.5556 58.1289ZM36.6578 8.92V10.5556C34.0978 10.5556 31.68 10.9111 29.4755 11.6222C26.6311 12.5467 24.2133 13.6133 21.8667 15.2489L19.6622 16.8133C18.9511 17.4533 18.3111 17.88 17.6711 18.5911C17.0311 19.2311 16.4622 19.8 15.8222 20.44L14.9689 21.4356C14.6844 21.7911 14.4711 22.0756 14.1156 22.5022C12.2667 24.92 11.2711 26.7689 10.0622 29.6844C9.70667 30.6089 9.42222 31.6044 9.13778 32.4578C8.85333 33.3822 8.64 34.4489 8.42667 35.5156C8 37.8622 8 39.8533 8 42.5556C8.42667 42.4133 8.78222 42.0578 9.13778 41.7733C11.4133 39.9244 12.4089 40.2089 14.7556 41.4178C15.3956 41.7733 18.5244 43.2667 18.88 43.2667C18.7378 42.9111 18.5956 41.56 18.5956 40.9911C18.5956 35.8711 20.3022 32.6 22.8622 28.76C23.2178 28.2622 23.5733 27.9778 23.9289 27.48C25.7778 25.2044 29.8311 22.8578 32.6755 22.0044C33.6711 21.72 35.4489 21.2222 36.6578 21.2222C36.6578 21.6489 36.8711 22.1467 37.0844 22.4311C37.5111 22.9289 38.0089 23 38.5067 23C39.36 23 40.64 21.9333 41.6355 21.3644L48.96 16.6711C50.4533 15.6756 50.3822 14.2533 49.0311 13.4C48.5333 13.1156 48.1067 12.8311 47.6089 12.4756L40.2844 7.78222C39.36 7.21333 39.5022 7 38.2222 7C37.2978 7 36.7289 7.92444 36.7289 8.84889L36.6578 8.92ZM44.9067 22.4311C46.6844 22.8578 49.6711 24.8489 51.0222 26.0578C53.9378 28.76 55.5733 31.32 56.8533 34.9467C57.8489 37.9333 57.92 40.4933 57.5644 43.5511C57.4933 44.4044 56.8533 46.9644 56.5689 47.5333C56.0711 47.5333 53.7244 46.68 53.7244 49.3111C53.7244 49.88 56.4267 59.1956 56.7111 60.2622C57.0667 61.6844 57.92 62.6089 59.3422 61.8978C59.7689 61.6844 61.4044 60.2622 61.9022 59.8356L68.2311 54.4311C69.1555 53.5778 69.2267 53.6489 69.2267 52.5111C69.2267 51.4444 67.8755 50.8044 66.88 50.7333L67.52 48.6711C68.8711 43.2667 68.8711 36.6533 67.0933 31.32C66.3822 29.1156 65.8133 27.8356 64.7467 25.8444C64.3911 25.2044 64.0355 24.7778 63.68 24.1378C63.2533 23.3556 61.9733 21.7911 61.4044 21.1511L60.1244 19.8C59.6267 19.3022 59.2711 18.9467 58.7733 18.4489C57.4933 17.1689 54.1511 14.8222 52.6578 13.9689C52.6578 16.8844 52.3733 17.4533 49.8133 19.16C49.0311 19.6578 45.3333 21.8622 45.0489 22.36L44.9067 22.4311Z" fill="#222222"/>
</svg>
