<svg width="64" height="64" viewBox="0 0 64 64" fill="none" xmlns="http://www.w3.org/2000/svg">
<path fill-rule="evenodd" clip-rule="evenodd" d="M19.5783 62C18.6738 61.6536 17.8286 61.2147 17.3977 60.2852C17.1969 59.8526 17.0898 59.3763 16.9096 58.8258C17.232 58.8102 17.4376 58.7917 17.6433 58.7915C19.7705 58.7893 21.8979 58.7919 24.0251 58.7895C25.2388 58.788 25.5634 58.4657 25.5654 57.2737C25.5663 56.7307 25.5655 56.188 25.5655 55.6055C32.7094 55.6055 39.8044 55.6055 47.0002 55.6055C47.0002 56.0629 47.0003 56.5401 47.0002 57.0172C47.0002 57.5637 47.0067 58.1102 46.9986 58.6566C46.9752 60.2454 46.1728 61.345 44.6673 61.8685C44.5807 61.8986 44.5034 61.9554 44.4221 61.9999C36.1407 62 27.8594 62 19.5783 62ZM30.9802 57.7395C30.9802 58.4822 30.9802 59.1537 30.9802 59.8188C31.6957 59.8188 32.3647 59.8188 33.0203 59.8188C33.0203 59.0986 33.0203 58.4277 33.0203 57.7395C32.3193 57.7395 31.6633 57.7395 30.9802 57.7395ZM2.00015 50.1639C2.25183 50.1789 2.50364 50.2069 2.75545 50.2071C9.36899 50.2095 15.9825 50.2091 22.5961 50.2091C22.8467 50.2091 23.0973 50.2091 23.3907 50.2091C23.3907 52.3562 23.3907 54.4492 23.3907 56.5847C23.2476 56.6001 23.0994 56.6301 22.9514 56.6301C16.0648 56.6324 9.17812 56.6321 2.29134 56.6309C2.19423 56.6309 2.09739 56.617 2.00028 56.6094C2.00014 54.4609 2.00015 52.3123 2.00015 50.1639ZM21.2602 52.4066C18.0362 52.4066 14.8638 52.4066 11.6729 52.4066C11.6729 53.1165 11.6729 53.7874 11.6729 54.4664C14.8855 54.4664 18.058 54.4664 21.2602 54.4664C21.2602 53.7766 21.2602 53.1201 21.2602 52.4066ZM9.47989 52.4113C7.67552 52.4113 5.92982 52.4113 4.17648 52.4113C4.17648 53.1257 4.17648 53.7965 4.17648 54.462C5.96799 54.462 7.71544 54.462 9.47989 54.462C9.47989 53.7661 9.47989 53.1087 9.47989 52.4113ZM19.5783 2C17.3867 3.07585 16.7917 4.06516 17.0477 6.25315C23.4343 6.25315 29.8253 6.25315 36.2471 6.25315C36.2638 6.08867 36.2858 5.95767 36.2892 5.82614C36.3293 4.36935 36.5692 4.13254 38.0145 4.13254C40.7085 4.13227 43.4027 4.1324 46.0968 4.1324C46.302 4.1324 46.5074 4.1324 46.8017 4.1324C46.6593 3.85661 46.5729 3.66493 46.4655 3.48572C45.972 2.66276 45.1781 2.27271 44.3048 2C36.0626 2 27.8205 2 19.5783 2ZM62.0001 24.3827C61.3731 23.2686 60.6001 23.1309 59.6472 23.9713C54.4087 28.5916 49.1713 33.2132 43.9338 37.8348C43.7019 38.0394 43.4733 38.2477 43.2709 38.4296C44.5222 39.6864 45.744 40.914 47.0014 42.1772C47.0781 42.0873 47.1772 41.9683 47.2794 41.8523C52.0165 36.4825 56.7553 31.1143 61.4873 25.74C61.6895 25.5104 61.8306 25.227 62.0001 24.9688C62.0001 24.7733 62.0001 24.5782 62.0001 24.3827ZM2.00015 6.33594C2.97446 6.32067 3.94891 6.29575 4.92323 6.29213C6.77636 6.28504 8.62935 6.29012 10.5239 6.29012C10.5239 8.42789 10.5239 10.5253 10.5239 12.6642C10.4147 12.679 10.305 12.7065 10.1953 12.7065C7.55926 12.7089 4.92322 12.7089 2.28705 12.7065C2.19142 12.7062 2.09577 12.6788 2 12.664C2.00013 10.5547 2.00015 8.4453 2.00015 6.33594ZM8.4058 8.46914C6.97446 8.46914 5.5845 8.46914 4.16951 8.46914C4.16951 9.17302 4.16951 9.84195 4.16951 10.5311C5.59656 10.5311 6.98678 10.5311 8.4058 10.5311C8.4058 9.84275 8.4058 9.18816 8.4058 8.46914ZM46.7449 48.0049C45.3301 49.9778 43.435 51.1523 40.9918 51.2311C38.3974 51.3149 35.799 51.275 33.2025 51.2859C33.0866 51.2863 32.9361 51.2966 32.8608 51.2327C32.5672 50.983 32.1486 50.7454 32.0622 50.4262C31.9828 50.1326 32.2393 49.7231 32.4101 49.3972C32.4904 49.244 32.7151 49.1648 32.8771 49.0559C33.6618 48.5297 34.0786 47.791 34.116 46.8515C34.141 46.2276 34.1244 45.602 34.1337 44.9773C34.193 40.9637 36.9034 37.9269 40.8775 37.3968C41.1072 37.3663 41.3552 37.2386 41.5324 37.0846C43.2261 35.6103 44.9002 34.1134 46.5962 32.6421C46.8869 32.3898 47.0103 32.1399 47.009 31.7505C46.9948 27.7473 47.0006 23.7441 46.999 19.7407C46.9988 19.553 46.9794 19.365 46.9667 19.1321C46.7099 19.1321 46.4987 19.1321 46.2876 19.1321C43.456 19.132 40.6245 19.133 37.7929 19.1314C36.6189 19.1309 36.2933 18.8105 36.2922 17.6454C36.2894 14.8137 36.2913 11.9824 36.2913 9.15079C36.2913 8.92469 36.2913 8.69872 36.2913 8.4824C29.8091 8.4824 23.417 8.4824 17.0316 8.4824C17.0316 10.3979 17.0316 12.265 17.0316 14.1459C17.7345 14.0339 18.4049 13.9273 19.1442 13.8097C19.1442 12.7369 19.1442 11.6739 19.1442 10.6053C19.8886 10.6053 20.5596 10.6053 21.2904 10.6053C21.2904 11.6904 21.2904 12.737 21.2904 13.8342C24.6982 14.168 27.6207 15.4769 30.0181 17.8612C32.433 20.2635 33.7557 23.2008 34.0927 26.6484C35.1949 26.6484 36.2583 26.6484 37.323 26.6484C37.323 27.3928 37.323 28.063 37.323 28.7941C36.2327 28.7941 35.1857 28.7941 34.1698 28.7941C32.9858 36.2426 28.7088 40.5113 21.2664 41.6804C21.2664 42.7289 21.2664 43.775 21.2664 44.8248C20.5286 44.8248 19.8569 44.8248 19.1306 44.8248C19.1306 43.7359 19.1306 42.6882 19.1306 41.62C18.4004 41.5037 17.7214 41.3955 17.0435 41.2875C17.0435 43.5678 17.0435 45.8026 17.0435 48.0656C17.2806 48.0656 17.4744 48.0656 17.6681 48.0656C19.8357 48.0656 22.0034 48.0623 24.1711 48.0673C25.1791 48.0696 25.5584 48.4481 25.5647 49.4388C25.5688 50.1223 25.5655 50.8058 25.5655 51.4892C25.5655 52.1254 25.5655 52.7617 25.5655 53.3992C32.7535 53.3992 39.8519 53.3992 47.0002 53.3992C47.0002 51.6888 47.0002 50.0137 47.0002 48.3383C47.0002 48.1703 47.0002 48.0023 47.0002 47.6704C46.8388 47.8814 46.7901 47.9418 46.7449 48.0049ZM16.4576 21.7203C18.358 19.8404 21.4822 19.6766 23.5627 21.3742C24.6561 22.2663 25.3164 23.4087 25.5048 24.8011C25.7636 26.7115 25.094 28.3047 23.6849 29.6339C26.4124 31.2259 27.7212 33.579 27.7264 36.6836C29.7585 35.5159 32.1209 30.9562 31.8238 28.782C31.1976 28.782 30.5618 28.782 29.9018 28.782C29.9018 28.0456 29.9018 27.3725 29.9018 26.6232C30.5852 26.6232 31.2369 26.6232 31.8909 26.6232C31.4793 20.5669 26.0623 16.1794 21.2673 16.0798C21.2673 16.7307 21.2673 17.382 21.2673 18.0201C20.5191 18.0201 19.8471 18.0201 19.1067 18.0201C19.1067 17.3257 19.1067 16.6751 19.1067 16.023C12.7768 16.5535 8.65841 22.1041 8.57966 26.6605C9.23157 26.6605 9.88347 26.6605 10.5192 26.6605C10.5192 27.4023 10.5192 28.0735 10.5192 28.8013C9.83793 28.8013 9.20129 28.8013 8.568 28.8013C8.53947 31.5566 10.6818 35.4309 12.7045 36.6501C12.7157 33.5479 14.0384 31.1996 16.72 29.6438C13.9569 26.9714 14.6637 23.4951 16.4576 21.7203ZM59.8379 6.33487C59.8379 9.88414 59.8379 13.3924 59.8379 16.9504C52.7253 16.9504 45.6142 16.9504 38.4688 16.9504C38.4688 13.4269 38.4688 9.9033 38.4688 6.33487C45.5753 6.33487 52.6706 6.33487 59.8379 6.33487ZM57.6713 12.7664C51.9604 12.7664 46.2778 12.7664 40.6178 12.7664C40.6178 13.495 40.6178 14.166 40.6178 14.8339C46.3245 14.8339 51.9792 14.8339 57.6713 14.8339C57.6713 14.1278 57.6713 13.4552 57.6713 12.7664ZM47.0367 8.4678C47.0367 9.18079 47.0367 9.85159 47.0367 10.5177C50.6078 10.5177 54.1425 10.5177 57.678 10.5177C57.678 9.81315 57.678 9.15695 57.678 8.4678C54.1262 8.4678 50.605 8.4678 47.0367 8.4678ZM40.6093 8.45668C40.6093 9.19284 40.6093 9.86217 40.6093 10.5208C42.0431 10.5208 43.4331 10.5208 44.8224 10.5208C44.8224 9.80658 44.8224 9.13779 44.8224 8.45668C43.3997 8.45668 42.0222 8.45668 40.6093 8.45668ZM25.347 38.3051C25.4531 38.2537 25.5572 38.0666 25.5549 37.9447C25.5378 37.0491 25.5751 36.1418 25.4409 35.2619C25.1219 33.1693 23.2869 31.389 21.2006 31.0377C18.8909 30.6487 16.6824 31.7008 15.5768 33.6295C14.781 35.0173 14.8615 36.5119 14.8807 38.0098C14.882 38.1137 14.9936 38.264 15.0929 38.3117C16.3467 38.914 17.6555 39.3243 19.1313 39.4174C19.1313 38.7315 19.1313 38.0792 19.1313 37.4005C19.8774 37.4005 20.5501 37.4005 21.2829 37.4005C21.2829 38.0671 21.2829 38.7028 21.2829 39.419C22.7824 39.3159 24.0944 38.9128 25.347 38.3051ZM40.1848 49.1302C40.5554 49.1285 40.9286 49.1208 41.2959 49.0771C43.6067 48.8033 45.584 46.8315 45.8363 44.5377C45.8561 44.3578 45.7865 44.1069 45.6638 43.982C44.2681 42.5606 42.8579 41.1533 41.4378 39.7561C41.3225 39.6424 41.0995 39.5639 40.9388 39.5817C38.4783 39.8543 36.5124 41.9479 36.3254 44.4324C36.2094 45.9743 36.5384 47.5718 35.6619 49.1323C37.2589 49.1323 38.7218 49.1358 40.1848 49.1302ZM17.0047 25.5507C16.9905 27.3066 18.4239 28.7559 20.1944 28.7756C21.9409 28.7952 23.413 27.3459 23.4287 25.5915C23.4442 23.8407 21.9971 22.3832 20.2343 22.374C18.4637 22.3649 17.0191 23.7858 17.0047 25.5507Z" fill="black"/>
</svg>
