<svg width="449" height="300" viewBox="0 0 449 300" fill="none" xmlns="http://www.w3.org/2000/svg">
<g clip-path="url(#clip0_297_1168)">
<path d="M449 0H0V300H449V0Z" fill="white"/>
<path d="M96.8086 46.3756C70.2882 71.4309 109.705 98.7835 91.1389 113.066C72.5728 127.348 -6.17659 157.987 78.073 203.03C162.323 248.073 168.012 272.251 223.736 236.592C279.461 200.932 273.644 204.509 322.614 222.944C371.585 241.38 419.116 204.599 399.62 165.915C380.123 127.231 369.393 128.432 387.039 101.758C404.684 75.0835 365.616 -6.52146 302.715 52.17C239.814 110.861 252.702 72.3414 222.764 45.9229C206.555 31.6196 138.719 6.78018 96.8086 46.3756Z" fill="url(#paint0_linear_297_1168)"/>
<path d="M109.197 31.8976C100.406 45.838 52.555 129.056 122.407 188.086C122.407 188.086 167.981 141.428 111.61 31.9987C111.117 31.0414 109.771 30.9869 109.197 31.8976Z" fill="#BDD0FB"/>
<path d="M110.953 48.5042C110.132 53.6984 109.418 58.916 108.749 64.1356C108.082 69.3564 107.476 74.5849 106.93 79.8193C105.839 90.288 104.982 100.781 104.448 111.29C103.921 121.797 103.7 132.323 104.053 142.828C104.212 148.08 104.562 153.325 105.11 158.543C105.666 163.758 106.428 168.954 107.595 174.052L107.596 174.055C107.68 174.419 107.452 174.782 107.089 174.866C106.726 174.95 106.363 174.722 106.28 174.358L106.279 174.354C105.127 169.176 104.392 163.928 103.864 158.671C103.344 153.413 103.026 148.139 102.898 142.864C102.608 132.313 102.896 121.762 103.488 111.238C104.088 100.713 105.012 90.2107 106.169 79.7371C106.747 74.5002 107.386 69.2702 108.086 64.0485C108.787 58.8265 109.534 53.6133 110.389 48.4102C110.414 48.254 110.562 48.1482 110.718 48.1738C110.873 48.1994 110.978 48.3458 110.954 48.5014L110.953 48.5042Z" fill="#DCE5FE"/>
<path d="M48.1945 47.2707C43.2049 67.5445 18.9758 186.715 126.471 229.589C126.471 229.589 162.573 155.25 51.1336 46.4236C50.1588 45.4714 48.5205 45.9462 48.1945 47.2707Z" fill="#91B3FA"/>
<path d="M56.8661 66.5425C57.6514 73.5069 58.7283 80.45 59.9405 87.3593C61.1587 94.2698 62.5436 101.151 64.0982 107.992C67.2121 121.672 70.9728 135.211 75.6047 148.447C80.2487 161.67 85.7499 174.618 92.5949 186.831C94.2956 189.889 96.1119 192.88 98.0019 195.82C99.8883 198.763 101.887 201.633 103.991 204.42C108.176 210.011 112.843 215.236 117.976 219.944L117.98 219.948C118.255 220.201 118.274 220.629 118.022 220.904C117.77 221.18 117.343 221.199 117.068 220.947L117.066 220.945C111.882 216.145 107.187 210.837 102.989 205.174C100.878 202.351 98.8761 199.447 96.9891 196.473C95.0982 193.501 93.2833 190.481 91.5862 187.397C84.7556 175.075 79.2945 162.049 74.6969 148.764C70.112 135.466 66.4065 121.88 63.35 108.161C61.8243 101.3 60.469 94.4016 59.2809 87.4747C58.0984 80.5458 57.0531 73.5973 56.2966 66.6002C56.2796 66.4427 56.3931 66.3014 56.5501 66.2844C56.7072 66.2673 56.8481 66.3811 56.8652 66.5384L56.8661 66.5425Z" fill="#DCE5FE"/>
<path d="M35.86 158.566C36.8576 169.176 44.9824 230.591 99.4061 231.071C99.4061 231.071 103.639 188.856 37.0285 157.615C36.4456 157.342 35.7947 157.873 35.86 158.566Z" fill="#BDD0FB"/>
<path d="M42.8916 166.104C44.3201 169.13 45.8686 172.112 47.4589 175.063C49.0523 178.014 50.7126 180.929 52.4287 183.809C54.1478 186.688 55.9293 189.528 57.7732 192.327C59.6158 195.125 61.5207 197.883 63.5122 200.575C65.5009 203.269 67.5462 205.921 69.7053 208.475C71.8607 211.032 74.0774 213.538 76.4358 215.902C77.0114 216.507 77.6136 217.084 78.2162 217.661C78.8219 218.234 79.4057 218.831 80.0351 219.378L81.8947 221.049L83.8143 222.647C86.4034 224.737 89.1134 226.672 91.9674 228.358L91.9752 228.363C92.2965 228.553 92.4033 228.968 92.2139 229.29C92.0245 229.612 91.6106 229.719 91.2895 229.529L91.2833 229.525C85.4662 226.004 80.2938 221.563 75.61 216.712C73.2493 214.3 71.0382 211.75 68.8915 209.154C66.741 206.559 64.7092 203.87 62.7358 201.143C60.7598 198.417 58.8729 195.628 57.0499 192.8C55.2256 189.973 53.4655 187.105 51.7688 184.2C50.0749 181.293 48.4382 178.354 46.8688 175.379C45.3013 172.402 43.7811 169.405 42.3711 166.342C42.3049 166.198 42.3675 166.028 42.511 165.962C42.6536 165.896 42.8221 165.957 42.8893 166.099L42.8916 166.104Z" fill="#DCE5FE"/>
<path d="M404.101 145.451C406.674 158.24 418.618 233.278 350.374 257.159C350.374 257.159 329.822 209.787 402.288 144.844C402.922 144.275 403.932 144.616 404.101 145.451Z" fill="#91B3FA"/>
<path d="M398.634 157.315C397.981 161.669 397.144 165.978 396.229 170.276C395.309 174.572 394.285 178.845 393.153 183.09C392.022 187.335 390.783 191.553 389.434 195.735C389.088 196.778 388.764 197.829 388.401 198.866L387.323 201.981C386.567 204.045 385.826 206.115 385.007 208.156C384.224 210.211 383.351 212.23 382.499 214.257L381.152 217.269C380.713 218.278 380.211 219.258 379.743 220.254C377.825 224.213 375.769 228.114 373.449 231.862L372.591 233.275L371.683 234.657L370.775 236.039L370.321 236.729L369.839 237.402L367.907 240.089L365.856 242.689C363.059 246.106 360.005 249.325 356.638 252.209C356.354 252.452 355.928 252.419 355.686 252.135C355.444 251.851 355.477 251.423 355.76 251.181L355.764 251.178L355.772 251.171C359.085 248.375 362.108 245.237 364.888 241.892L366.928 239.344L368.855 236.706L369.336 236.045L369.79 235.366L370.698 234.006L371.606 232.646L372.465 231.254C374.789 227.561 376.858 223.706 378.792 219.788C379.264 218.802 379.769 217.833 380.214 216.834L381.574 213.85C382.437 211.841 383.319 209.839 384.114 207.8C384.944 205.776 385.696 203.72 386.465 201.671L387.561 198.576C387.93 197.546 388.261 196.502 388.613 195.466C389.988 191.309 391.254 187.114 392.413 182.889C393.572 178.665 394.626 174.41 395.575 170.133C396.518 165.856 397.387 161.553 398.067 157.233L398.068 157.228C398.093 157.071 398.239 156.964 398.395 156.989C398.551 157.014 398.657 157.159 398.634 157.315Z" fill="#DCE5FE"/>
<path d="M414.816 207.816C412.785 216.965 398.979 269.673 351.429 264.113C351.429 264.113 352.351 226.806 413.9 206.857C414.438 206.683 414.948 207.218 414.816 207.816Z" fill="#BDD0FB"/>
<path d="M408.312 213.905C406.747 216.426 405.095 218.875 403.402 221.303C401.709 223.729 399.96 226.116 398.165 228.468C396.368 230.818 394.519 233.13 392.619 235.399C390.72 237.669 388.769 239.897 386.747 242.062C384.727 244.227 382.66 246.353 380.5 248.384C378.343 250.416 376.134 252.401 373.81 254.25C369.191 257.975 364.189 261.29 358.719 263.731C358.378 263.883 357.979 263.73 357.828 263.389C357.676 263.047 357.829 262.647 358.17 262.495C358.171 262.495 358.172 262.494 358.173 262.494L358.185 262.488C363.529 260.173 368.489 256.973 373.091 253.343C375.408 251.542 377.616 249.601 379.777 247.609C381.941 245.619 384.016 243.531 386.047 241.401C388.08 239.273 390.045 237.077 391.96 234.839C393.876 232.601 395.743 230.319 397.559 227.998C399.373 225.674 401.142 223.314 402.856 220.915C404.568 218.516 406.247 216.085 407.825 213.604L407.828 213.6C407.913 213.466 408.09 213.427 408.223 213.512C408.355 213.596 408.395 213.772 408.312 213.905Z" fill="#DCE5FE"/>
<path d="M65.3921 205.564H156.995V189.833L65.3921 189.833C67.3526 189.833 67.3526 205.564 65.3921 205.564Z" fill="url(#paint1_linear_297_1168)"/>
<path d="M156.995 201.627V194.428C156.995 191.891 155.185 189.833 152.952 189.833H65.7783C64.0222 189.833 62.5986 188.612 62.5986 187.105C62.5986 186.647 63.0311 186.276 63.5648 186.276H158.839C161.024 186.276 164.493 189.224 164.493 192.859V202.914C164.493 206.342 161.125 209.121 159.065 209.121H64.0659C63.2555 209.121 62.5986 208.557 62.5986 207.862C62.5986 206.593 63.7978 205.564 65.277 205.564H153.532C155.445 205.564 156.995 203.801 156.995 201.627Z" fill="#7D97F4"/>
<path d="M154.455 193.399H68.5642C68.3777 193.399 68.2266 193.248 68.2266 193.061C68.2266 192.874 68.3777 192.723 68.5642 192.723H154.455C154.641 192.723 154.792 192.874 154.792 193.061C154.792 193.248 154.641 193.399 154.455 193.399Z" fill="#91B3FA"/>
<path d="M154.455 195.734H68.5642C68.3777 195.734 68.2266 195.583 68.2266 195.396C68.2266 195.209 68.3777 195.057 68.5642 195.057H154.455C154.641 195.057 154.792 195.209 154.792 195.396C154.792 195.583 154.641 195.734 154.455 195.734Z" fill="#91B3FA"/>
<path d="M154.455 198.069H68.5642C68.3777 198.069 68.2266 197.918 68.2266 197.731C68.2266 197.544 68.3777 197.392 68.5642 197.392H154.455C154.641 197.392 154.792 197.544 154.792 197.731C154.792 197.918 154.641 198.069 154.455 198.069Z" fill="#91B3FA"/>
<path d="M154.455 200.404H68.5642C68.3777 200.404 68.2266 200.252 68.2266 200.065C68.2266 199.878 68.3777 199.727 68.5642 199.727H154.455C154.641 199.727 154.792 199.878 154.792 200.065C154.792 200.252 154.641 200.404 154.455 200.404Z" fill="#91B3FA"/>
<path d="M154.455 202.739H68.5642C68.3777 202.739 68.2266 202.587 68.2266 202.401C68.2266 202.214 68.3777 202.062 68.5642 202.062H154.455C154.641 202.062 154.792 202.214 154.792 202.401C154.792 202.587 154.641 202.739 154.455 202.739Z" fill="#91B3FA"/>
<path d="M177.372 270.342H39.2339C37.2206 270.342 35.5884 268.706 35.5884 266.689V243.235C35.5884 241.217 37.2206 239.581 39.2339 239.581H177.372C179.385 239.581 181.017 241.217 181.017 243.235V266.689C181.017 268.706 179.385 270.342 177.372 270.342Z" fill="#7D97F4"/>
<path d="M67.7948 266.807H53.3377C52.6121 266.807 52.0239 266.217 52.0239 265.49V244.433C52.0239 243.706 52.6121 243.117 53.3377 243.117H67.7948C68.5205 243.117 69.1086 243.706 69.1086 244.433V265.49C69.1086 266.217 68.5205 266.807 67.7948 266.807Z" fill="#91B3FA"/>
<path d="M169.426 210.83V216.128C169.426 217.038 168.953 217.902 168.13 218.497L167.317 219.085C166.649 219.568 166.789 220.464 167.583 220.787C168.107 221 168.205 221.589 167.77 221.913L166.745 222.677C166.074 223.177 166.073 224.053 166.742 224.554L167.478 225.105C168.113 225.58 168.094 226.416 167.439 226.872L166.648 227.422C166.099 227.803 166.008 228.478 166.44 228.953L166.875 229.431C167.187 229.774 167.356 230.192 167.356 230.623V238.989H60.1196V210.327L169.426 210.83Z" fill="#91B3FA"/>
<path d="M63.8343 216.965H165.667C165.889 216.965 166.069 216.814 166.069 216.629C166.069 216.443 165.889 216.293 165.667 216.293H63.8343C63.6122 216.293 63.4326 216.443 63.4326 216.629C63.4326 216.814 63.6122 216.965 63.8343 216.965Z" fill="url(#paint2_linear_297_1168)"/>
<path d="M63.8343 221.954H163.257C163.479 221.954 163.659 221.804 163.659 221.619C163.659 221.433 163.479 221.283 163.257 221.283H63.8343C63.6122 221.283 63.4326 221.433 63.4326 221.619C63.4326 221.804 63.6122 221.954 63.8343 221.954Z" fill="url(#paint3_linear_297_1168)"/>
<path d="M63.8343 225.627H162.021C162.243 225.627 162.423 225.477 162.423 225.291C162.423 225.106 162.243 224.955 162.021 224.955H63.8343C63.6122 224.955 63.4326 225.106 63.4326 225.291C63.4326 225.477 63.6122 225.627 63.8343 225.627Z" fill="url(#paint4_linear_297_1168)"/>
<path d="M58.1749 208.499H171.772C172.638 208.499 173.411 209.028 173.493 209.748C173.587 210.573 172.812 211.268 171.844 211.268H66.5101C64.6602 211.268 63.0618 212.35 62.6774 213.862C60.9548 220.635 61.0851 227.688 62.708 234.964C63.0845 236.652 64.8513 237.875 66.906 237.875H169.691C170.556 237.875 171.329 238.404 171.411 239.123C171.506 239.949 170.731 240.644 169.762 240.644H58.9274C56.2776 240.644 53.9954 239.063 53.5232 236.885C51.6091 228.058 51.4415 219.585 53.5218 211.568C53.988 209.771 55.9121 208.499 58.113 208.499H58.1749Z" fill="url(#paint5_linear_297_1168)"/>
<path d="M365.168 251.938C365.168 254.778 363.036 257.103 360.431 257.103H104.278C101.672 257.103 99.5406 254.778 99.5406 251.938L97.4092 91.2795C97.4092 88.4387 100.476 82.8929 106.096 83.3098L356.437 76.2402C359.706 76.1478 362.866 77.5211 365.181 80.0393C367.496 82.5575 368.763 86.0005 368.685 89.5649L365.168 251.938Z" fill="url(#paint6_linear_297_1168)"/>
<path d="M360.491 246.983C360.491 249.673 358.474 251.873 356.009 251.873H110.455C107.99 251.873 105.973 249.673 105.973 246.983L103.962 101.136C104.199 92.3589 111.249 89.2045 115.523 89.3907C115.523 89.3907 311.187 83.6616 355.452 82.3654C357.749 82.2982 359.969 83.2638 361.596 85.0345C363.222 86.8053 364.117 89.2284 364.059 91.7351L360.491 246.983Z" fill="url(#paint7_linear_297_1168)"/>
<path d="M108.627 177.316C108.443 177.316 108.292 177.168 108.289 176.983L108.13 165.155C108.128 164.968 108.277 164.814 108.463 164.812C108.647 164.805 108.803 164.959 108.805 165.145L108.965 176.973C108.967 177.16 108.818 177.314 108.632 177.316C108.63 177.316 108.629 177.316 108.627 177.316Z" fill="url(#paint8_linear_297_1168)"/>
<path d="M108.237 148.332C108.053 148.332 107.902 148.183 107.9 147.998L107.29 102.697C107.303 99.54 108.238 97.0535 110.069 95.3002C113.108 92.3913 117.618 92.5453 117.806 92.552L194.426 90.3078C194.622 90.2991 194.768 90.4495 194.773 90.636C194.779 90.8229 194.632 90.9786 194.446 90.984L117.805 93.2282C117.598 93.2202 113.369 93.0766 110.535 95.7893C108.842 97.4104 107.977 99.7333 107.965 102.694L108.575 147.988C108.577 148.175 108.428 148.329 108.242 148.331C108.24 148.332 108.239 148.332 108.237 148.332Z" fill="url(#paint9_linear_297_1168)"/>
<g opacity="0.58">
<path d="M116.792 238.892C117.049 226.837 116.953 120.092 116.319 110.873C115.686 101.654 128.841 99.9253 149.039 98.8878C169.237 97.8504 339.653 93.7427 344.041 93.3546C353.904 92.4816 355.945 108.571 354.959 143.5C354.217 169.742 352.989 212.971 352.423 232.85C352.255 238.77 347.822 243.466 342.396 243.483C301.387 243.605 144.211 244.097 133.747 244.437C121.706 244.829 116.69 243.671 116.792 238.892Z" fill="#7D97F4"/>
</g>
<path d="M384.586 270.439H85.3151C84.5662 270.439 83.9536 269.825 83.9536 269.075V257.688C83.9536 256.937 84.5662 256.323 85.3151 256.323H384.586C385.335 256.323 385.948 256.937 385.948 257.688V269.075C385.948 269.825 385.335 270.439 384.586 270.439Z" fill="url(#paint10_linear_297_1168)"/>
<path d="M334.309 224.331H137.501C134.665 224.331 132.443 221.98 132.443 218.978V117.68C132.443 114.746 134.649 112.406 137.466 112.354L334.247 108.685C335.628 108.665 336.944 109.202 337.943 110.214C338.927 111.212 339.492 112.596 339.492 114.012V218.978C339.493 221.93 337.167 224.331 334.309 224.331ZM137.478 113.03C135.034 113.076 133.119 115.119 133.119 117.68V218.978C133.119 221.6 135.044 223.654 137.501 223.654H334.309C336.795 223.654 338.818 221.557 338.818 218.978V114.012C338.818 112.773 338.324 111.562 337.463 110.69C336.595 109.811 335.462 109.346 334.26 109.362L137.478 113.03Z" fill="url(#paint11_linear_297_1168)"/>
<path d="M263.757 130.407C263.757 128.312 262.062 126.614 259.972 126.614H144.728C142.637 126.614 140.943 128.312 140.943 130.407V199.166C140.943 201.261 142.637 202.959 144.728 202.959H259.972C262.062 202.959 263.757 201.261 263.757 199.166V130.407Z" fill="url(#paint12_linear_297_1168)"/>
<path d="M318.553 151.881H276.815C274.098 151.881 271.969 149.737 271.969 146.999V131.081C271.969 128.386 274.098 126.275 276.815 126.275H318.553C321.426 126.275 323.946 128.521 323.946 131.081V146.999C323.947 149.6 321.426 151.881 318.553 151.881ZM276.815 126.952C274.437 126.952 272.644 128.727 272.644 131.081V146.999C272.644 149.067 274.204 151.204 276.815 151.204H318.553C321.023 151.204 323.271 149.2 323.271 146.999V131.081C323.271 128.882 321.067 126.952 318.553 126.952H276.815Z" fill="url(#paint13_linear_297_1168)"/>
<path d="M318.553 183.821H276.815C274.052 183.821 271.969 181.785 271.969 179.084V163.166C271.969 160.067 274.433 158.215 276.815 158.215H318.553C321.376 158.215 323.946 160.575 323.946 163.166V179.084C323.947 181.652 321.477 183.821 318.553 183.821ZM276.815 158.892C274.204 158.892 272.644 161.065 272.644 163.166V179.084C272.644 181.399 274.437 183.145 276.815 183.145H318.553C321.067 183.145 323.271 181.247 323.271 179.084V163.166C323.271 160.929 321.023 158.892 318.553 158.892H276.815Z" fill="url(#paint14_linear_297_1168)"/>
<path d="M318.553 215.762H276.815C274.007 215.762 271.969 213.83 271.969 211.168V195.251C271.969 192.8 273.822 190.156 276.815 190.156H318.553C321.376 190.156 323.946 192.584 323.946 195.251V211.168C323.947 213.701 321.527 215.762 318.553 215.762ZM276.815 190.833C274.239 190.833 272.644 193.126 272.644 195.25V211.168C272.644 213.438 274.398 215.085 276.815 215.085H318.553C321.111 215.085 323.271 213.291 323.271 211.168V195.25C323.271 192.979 320.979 190.833 318.553 190.833H276.815Z" fill="url(#paint15_linear_297_1168)"/>
<path d="M220.088 207.963C208.341 207.934 155.092 207.811 143.32 207.922C142.053 207.934 140.942 208.965 140.942 210.234V211.526C140.942 212.783 141.95 213.809 143.204 213.838L219.858 215.602C220.479 215.616 221.25 215.379 221.694 214.944C222.138 214.508 222.559 213.912 222.559 213.289V210.276C222.559 209.001 221.361 207.966 220.088 207.963Z" fill="#BDD0FB"/>
<path d="M339.155 119.941H132.781C132.594 119.941 132.443 119.789 132.443 119.602C132.443 119.415 132.594 119.264 132.781 119.264H339.155C339.341 119.264 339.493 119.415 339.493 119.602C339.493 119.789 339.341 119.941 339.155 119.941Z" fill="url(#paint16_linear_297_1168)"/>
<path d="M314.255 116.825H313.919C312.647 116.825 311.612 115.787 311.612 114.512V114.175C311.612 112.901 312.647 111.863 313.919 111.863H314.255C315.527 111.863 316.562 112.901 316.562 114.175V114.512C316.562 115.787 315.527 116.825 314.255 116.825ZM313.919 112.54C313.019 112.54 312.287 113.273 312.287 114.175V114.512C312.287 115.414 313.019 116.148 313.919 116.148H314.255C315.155 116.148 315.887 115.414 315.887 114.512V114.175C315.887 113.273 315.155 112.54 314.255 112.54H313.919Z" fill="white"/>
<path d="M323.194 116.825H322.858C321.586 116.825 320.551 115.787 320.551 114.512V114.175C320.551 112.901 321.586 111.863 322.858 111.863H323.194C324.466 111.863 325.501 112.901 325.501 114.175V114.512C325.501 115.787 324.466 116.825 323.194 116.825ZM322.858 112.54C321.958 112.54 321.226 113.273 321.226 114.175V114.512C321.226 115.414 321.958 116.148 322.858 116.148H323.194C324.094 116.148 324.826 115.414 324.826 114.512V114.175C324.826 113.273 324.094 112.54 323.194 112.54H322.858Z" fill="white"/>
<path d="M332.522 116.825H332.185C330.913 116.825 329.878 115.787 329.878 114.512V114.175C329.878 112.901 330.913 111.863 332.185 111.863H332.522C333.794 111.863 334.829 112.901 334.829 114.175V114.512C334.829 115.787 333.794 116.825 332.522 116.825ZM332.185 112.54C331.286 112.54 330.554 113.273 330.554 114.175V114.512C330.554 115.414 331.286 116.148 332.185 116.148H332.522C333.422 116.148 334.154 115.414 334.154 114.512V114.175C334.154 113.273 333.422 112.54 332.522 112.54H332.185Z" fill="white"/>
<path d="M248.39 199.082C242.076 199.082 236.95 193.944 236.95 187.628C236.95 181.3 242.076 176.162 248.378 176.162C254.692 176.162 259.819 181.3 259.819 187.616V187.628C259.819 193.944 254.692 199.082 248.39 199.082ZM248.39 176.839C242.449 176.839 237.625 181.673 237.625 187.616C237.625 193.571 242.449 198.406 248.378 198.406C254.32 198.406 259.144 193.571 259.144 187.628V187.616C259.144 181.673 254.32 176.839 248.39 176.839Z" fill="url(#paint17_linear_297_1168)"/>
<path d="M245.232 193.378C244.912 193.378 244.649 193.123 244.64 192.801L244.37 182.683C244.361 182.35 244.522 182.041 244.8 181.859C245.079 181.676 245.425 181.651 245.727 181.792L255.699 186.467C256.028 186.621 256.238 186.943 256.248 187.307C256.257 187.671 256.064 188.004 255.744 188.175L246.941 192.878C246.652 193.032 246.294 192.923 246.14 192.634C245.986 192.345 246.096 191.985 246.384 191.831L254.78 187.345L245.563 183.025L245.824 192.769C245.833 193.097 245.575 193.369 245.248 193.378C245.242 193.378 245.237 193.378 245.232 193.378Z" fill="url(#paint18_linear_297_1168)"/>
<path d="M195.498 173.75C199.308 163.742 209.828 158.192 219.582 161.28C220.628 161.612 221.625 162.031 222.567 162.526C225.842 166.428 227.119 171.871 225.473 177.093C222.916 185.206 214.28 189.705 206.185 187.142C200.066 185.205 196.009 179.785 195.498 173.75Z" fill="url(#paint19_linear_297_1168)"/>
<path d="M203.07 176.935C215.497 176.935 225.571 166.838 225.571 154.383C225.571 141.928 215.497 131.831 203.07 131.831C190.642 131.831 180.568 141.928 180.568 154.383C180.568 166.838 190.642 176.935 203.07 176.935Z" fill="url(#paint20_linear_297_1168)"/>
<path d="M198.179 140.072C207.034 144.93 210.229 156.161 205.315 165.157C203.884 167.779 201.92 169.92 199.638 171.52C207.539 173.502 216.128 169.927 220.272 162.34C225.185 153.344 221.99 142.113 213.135 137.255C206.861 133.813 199.429 134.495 193.882 138.384C195.349 138.752 196.792 139.311 198.179 140.072Z" fill="url(#paint21_linear_297_1168)"/>
<path d="M187.743 167.931C195.915 161.028 197.676 149.244 191.552 141.033C190.895 140.151 190.172 139.347 189.395 138.618C184.64 136.805 179.091 137.392 174.715 140.67C167.915 145.764 166.523 155.417 171.605 162.232C175.447 167.384 181.889 169.436 187.743 167.931Z" fill="url(#paint22_linear_297_1168)"/>
<path opacity="0.31" d="M189.187 141.013C190.113 142.241 191.23 144.118 191.763 146.517C192.158 148.294 190.684 149.923 188.877 149.734C184.293 149.255 176.184 149.498 174.602 156.834C174.347 158.019 172.676 158.072 172.333 156.91C170.659 151.231 171.006 140.47 185.737 139.438C187.076 139.344 188.377 139.939 189.187 141.013Z" fill="white"/>
<path opacity="0.68" d="M211.896 185.338C211.746 185.338 211.608 185.236 211.569 185.083C211.523 184.903 211.632 184.718 211.813 184.672C217.705 183.159 221.392 179.961 222.771 175.167C223.801 171.588 223.092 168.425 223.085 168.393C223.043 168.211 223.156 168.029 223.338 167.987C223.519 167.945 223.701 168.059 223.743 168.241C223.773 168.374 226.638 181.564 211.98 185.327C211.952 185.334 211.924 185.338 211.896 185.338Z" fill="white"/>
<g opacity="0.78">
<path d="M212.776 157.945C212.933 157.945 213.091 157.887 213.214 157.769L221.872 149.55C222.625 148.835 223.611 148.442 224.648 148.442H254.117C254.469 148.442 254.754 148.156 254.754 147.803C254.754 147.45 254.469 147.164 254.117 147.164H224.648C223.283 147.164 221.986 147.682 220.995 148.622L212.337 156.841C212.082 157.084 212.071 157.489 212.313 157.745C212.438 157.878 212.607 157.945 212.776 157.945Z" fill="#BDD0FB"/>
<path d="M229.173 144.478H254.117C254.469 144.478 254.754 144.192 254.754 143.839C254.754 143.486 254.469 143.2 254.117 143.2H229.173C228.821 143.2 228.535 143.486 228.535 143.839C228.535 144.192 228.821 144.478 229.173 144.478Z" fill="#BDD0FB"/>
<path d="M233.231 140.515H254.117C254.469 140.515 254.754 140.229 254.754 139.876C254.754 139.523 254.469 139.237 254.117 139.237H233.231C232.879 139.237 232.594 139.523 232.594 139.876C232.594 140.229 232.879 140.515 233.231 140.515Z" fill="#BDD0FB"/>
</g>
<g opacity="0.78">
<path d="M195.991 170.506C195.82 170.506 195.649 170.569 195.515 170.696L186.107 179.627C185.288 180.404 184.217 180.832 183.09 180.832H151.069C150.686 180.832 150.376 181.143 150.376 181.526C150.376 181.91 150.686 182.221 151.069 182.221H183.09C184.573 182.221 185.983 181.658 187.06 180.636L196.468 171.704C196.745 171.441 196.757 171.001 196.494 170.723C196.358 170.579 196.175 170.506 195.991 170.506Z" fill="#BDD0FB"/>
<path d="M178.174 185.139H151.069C150.686 185.139 150.376 185.45 150.376 185.833C150.376 186.217 150.686 186.528 151.069 186.528H178.174C178.556 186.528 178.866 186.217 178.866 185.833C178.867 185.45 178.556 185.139 178.174 185.139Z" fill="#BDD0FB"/>
<path d="M173.763 189.446H151.069C150.686 189.446 150.376 189.757 150.376 190.14C150.376 190.524 150.686 190.835 151.069 190.835H173.763C174.146 190.835 174.456 190.524 174.456 190.14C174.456 189.757 174.146 189.446 173.763 189.446Z" fill="#BDD0FB"/>
</g>
<path d="M287.098 58.5131L278.035 78.4007C278.035 78.4007 283.055 111.628 317.983 124.578C352.912 137.528 368.455 120.701 368.455 120.701L379.57 91.3878L287.098 58.5131Z" fill="url(#paint23_linear_297_1168)"/>
<path d="M344.2 30.9796L271.133 44.9467C267.371 45.6658 265.909 50.3642 268.583 53.1456C281.629 66.7136 311.217 98.2451 321.913 115.979C323.058 117.876 325.325 118.73 327.414 118.061L402.21 94.1007C405.593 93.0169 406.694 88.6978 404.249 86.0885C391.358 72.3285 358.507 37.8254 347.398 31.5031C346.427 30.9504 345.295 30.7704 344.2 30.9796Z" fill="url(#paint24_linear_297_1168)"/>
<path d="M339.358 68.3402C339.358 68.3402 375.209 96.1442 377.614 101.98C380.019 107.815 371.959 132.646 371.959 132.646C376.052 154.637 374.888 178.016 363.71 189.303C363.71 189.303 353.735 159.974 360.347 148.579C366.959 137.183 369.534 132.5 369.534 132.5C369.534 132.5 376.781 105.91 375.581 101.909C375.581 101.909 335.997 69.5978 339.358 68.3402Z" fill="url(#paint25_linear_297_1168)"/>
<path d="M280.073 52.602L313.268 92.4011L321.567 102.351L323.642 104.838L324.679 106.082C325.013 106.476 325.368 106.832 325.767 107.149C327.362 108.41 329.535 108.897 331.516 108.418L356.652 102.262C356.828 102.219 357.005 102.327 357.048 102.503C357.091 102.678 356.984 102.855 356.81 102.899L331.709 109.226C329.49 109.779 327.039 109.25 325.232 107.84C324.782 107.488 324.369 107.08 324.003 106.652L322.957 105.416L320.866 102.942L312.501 93.0485L279.04 53.4738C278.798 53.1887 278.834 52.7616 279.118 52.52C279.403 52.2784 279.829 52.3136 280.07 52.5987L280.073 52.602Z" fill="#BDD0FB"/>
<path d="M367.981 145.359L367.898 145.435L367.803 145.532L367.611 145.726L367.239 146.154C366.994 146.443 366.772 146.761 366.537 147.065L365.903 148.039C365.705 148.374 365.524 148.721 365.333 149.061C365.134 149.396 364.979 149.757 364.815 150.113C364.656 150.471 364.48 150.823 364.333 151.187L363.923 152.294C363.788 152.664 363.638 153.029 363.541 153.413L363.214 154.552C363.107 154.933 362.984 155.309 362.915 155.7C362.757 156.477 362.584 157.251 362.436 158.03L362.119 160.394C362.095 160.591 362.061 160.787 362.045 160.986L362.007 161.582L361.931 162.775C361.78 164.363 361.858 165.963 361.845 167.56C361.836 167.96 361.866 168.359 361.895 168.757L361.975 169.954C362.032 170.752 362.074 171.551 362.144 172.349C362.355 173.936 362.533 175.529 362.77 177.114L363.648 181.845L363.651 181.858C363.674 181.985 363.59 182.108 363.463 182.132C363.337 182.155 363.216 182.074 363.19 181.949L362.199 177.212C361.923 175.623 361.707 174.021 361.458 172.425C361.369 171.622 361.309 170.815 361.233 170.01L361.124 168.801C361.086 168.399 361.046 167.996 361.046 167.591C361.021 165.972 360.906 164.351 361.022 162.729L361.072 161.512L361.097 160.904C361.109 160.701 361.139 160.499 361.159 160.297L361.429 157.871C361.561 157.067 361.721 156.267 361.866 155.464C361.928 155.06 362.046 154.668 362.147 154.272L362.46 153.085C362.551 152.685 362.699 152.301 362.83 151.913L363.232 150.749C363.377 150.365 363.552 149.991 363.712 149.611C363.875 149.233 364.03 148.851 364.233 148.489C364.426 148.123 364.61 147.753 364.814 147.391L365.471 146.329C365.719 145.991 365.95 145.643 366.217 145.313L366.625 144.822L366.851 144.583L366.965 144.463L367.102 144.333C367.374 144.077 367.801 144.09 368.056 144.362C368.312 144.633 368.299 145.062 368.028 145.318C368.026 145.32 368.024 145.322 368.022 145.324L367.981 145.359Z" fill="#BDD0FB"/>
<path d="M368.235 155.492L368.097 157.029L367.963 158.734L367.711 162.15L367.234 168.988L366.321 182.67C366.308 182.873 366.134 183.026 365.931 183.013C365.732 183.001 365.58 182.829 365.588 182.63L366.194 168.928L366.517 162.077L366.692 158.65L366.789 156.934L366.845 156.071L366.876 155.638C366.893 155.457 366.923 155.248 366.957 155.057C367.019 154.699 367.36 154.459 367.717 154.522C368.056 154.582 368.288 154.891 368.259 155.227L368.235 155.492Z" fill="#BDD0FB"/>
<path d="M93.7459 240.339C93.1138 241.276 90.6023 262.496 90.2092 270.333C90.1825 270.863 90.6056 271.304 91.1351 271.304C91.5918 271.304 91.9803 270.971 92.0507 270.519L96.6447 241.014L93.7459 240.339Z" fill="url(#paint26_linear_297_1168)"/>
<path d="M113.939 240.339C114.571 241.276 117.083 262.496 117.476 270.333C117.503 270.863 117.08 271.304 116.55 271.304C116.093 271.304 115.705 270.971 115.634 270.519L111.041 241.014L113.939 240.339Z" fill="url(#paint27_linear_297_1168)"/>
<path d="M89.9466 238.683L89.9445 238.915C89.9294 240.579 91.3602 241.945 93.1518 241.975L114.386 242.337C116.152 242.367 117.624 241.088 117.71 239.449L117.721 239.238C117.81 237.528 116.362 236.089 114.52 236.055L93.277 235.674C91.4591 235.641 89.962 236.994 89.9466 238.683Z" fill="url(#paint28_linear_297_1168)"/>
<path d="M131.255 269.562C127.481 269.562 125.811 269.237 125.064 268.941C125.209 269.563 125.761 270.053 126.459 270.053H139.812C140.262 270.053 140.546 269.621 140.438 269.231C138.916 269.354 135.683 269.562 131.255 269.562Z" fill="#7D97F4"/>
<path d="M140.438 269.231C140.417 269.152 140.385 269.075 140.329 269.003C139.312 267.702 137.269 265.657 134.489 265.697C130.417 265.754 128.998 266.197 125.833 265.722L125.087 268.201C125.011 268.454 125.009 268.707 125.064 268.941C125.811 269.237 127.481 269.562 131.255 269.562C135.683 269.562 138.916 269.354 140.438 269.231Z" fill="url(#paint29_linear_297_1168)"/>
<path d="M126.749 263.049L125.833 266.173C125.833 266.173 127.863 267.099 129.649 266.355L129.999 263.649L126.749 263.049Z" fill="url(#paint30_linear_297_1168)"/>
<path d="M154.426 267.595C151.484 269.964 149.98 270.761 149.214 271C149.713 271.391 150.449 271.425 150.993 270.987L161.402 262.604C161.753 262.322 161.706 261.809 161.379 261.573C160.269 262.624 157.878 264.815 154.426 267.595Z" fill="#7D97F4"/>
<path d="M161.379 261.574C161.313 261.526 161.24 261.486 161.152 261.466C159.549 261.094 156.685 260.791 154.543 262.567C151.404 265.167 150.573 266.402 147.811 268.02L148.771 270.412C148.869 270.656 149.025 270.853 149.213 271C149.98 270.761 151.483 269.965 154.426 267.595C157.878 264.815 160.269 262.624 161.379 261.574Z" fill="url(#paint31_linear_297_1168)"/>
<path d="M107.148 227.464C107.148 227.464 129.746 229.313 134.382 231.501C139.018 233.688 130.599 264.343 130.599 264.343C130.599 264.343 129.337 264.952 126.529 264.077C126.529 264.077 129.409 241.455 127.266 236.549L102.797 232.538L107.148 227.464Z" fill="url(#paint32_linear_297_1168)"/>
<path d="M145.565 263.713C145.775 263.905 147.81 268.019 147.81 268.019C147.81 268.019 150.077 267.528 150.539 266.091L148.5 262.377L145.565 263.713Z" fill="url(#paint33_linear_297_1168)"/>
<path d="M93.5364 227.275C93.5364 227.275 92.8001 229.051 92.83 231.411C92.8715 234.675 95.4897 237.323 98.7426 237.486L125.458 238.707C126.022 238.733 126.5 239.124 126.641 239.672C127.269 242.106 130.337 249.58 145.337 264.492C145.736 264.889 146.358 264.957 146.833 264.656L148.968 263.304C149.193 263.162 149.264 262.868 149.13 262.638L133.575 236.016C132.758 234.665 131.445 233.689 129.918 233.297L107.148 227.464L93.5364 227.275Z" fill="url(#paint34_linear_297_1168)"/>
<path d="M119.864 185.689C119.864 185.689 117.002 190.76 114.084 193.217L120.116 196.59C120.116 196.59 121.475 191.221 124.579 189.649L119.864 185.689Z" fill="url(#paint35_linear_297_1168)"/>
<path d="M93.0513 227.464C93.0513 227.464 100.264 229.226 107.148 227.464C107.148 227.464 116.78 214.486 120.507 210.954C120.507 210.954 126.452 220.355 139.683 221.687L140.421 220.035C140.421 220.035 129.887 215.168 126.645 207.691C123.402 200.213 122.099 197.024 119.149 195.073C117.312 193.858 116.212 193.028 115.643 192.575C115.332 192.326 114.902 192.298 114.563 192.506C111.432 194.418 96.6999 204.53 93.0513 227.464Z" fill="url(#paint36_linear_297_1168)"/>
<path d="M120.116 210.646C120.014 210.646 119.914 210.6 119.848 210.513C117.562 207.526 116.29 204.234 116.236 204.095C116.17 203.921 116.256 203.725 116.43 203.658C116.605 203.591 116.8 203.679 116.867 203.853C116.879 203.886 118.16 207.194 120.383 210.101C120.497 210.25 120.469 210.462 120.321 210.576C120.26 210.623 120.188 210.646 120.116 210.646Z" fill="url(#paint37_linear_297_1168)"/>
<path d="M138.887 219.171L140.377 218.773L144.898 217.724C145.443 217.598 146.015 217.694 146.488 217.993L150.376 220.444L139.639 220.426L138.887 219.171Z" fill="url(#paint38_linear_297_1168)"/>
<path d="M124.409 178.084C124.409 178.084 127.19 182.718 127.672 185.279C128.155 187.84 128.93 189.441 126.021 190.354C123.113 191.266 120.41 190.111 118.714 187.721C118.714 187.721 116.065 184.041 116.329 182.357C116.594 180.672 124.409 178.084 124.409 178.084Z" fill="url(#paint39_linear_297_1168)"/>
<path d="M119.488 185.739L119.864 185.689C119.864 185.689 117.895 182.706 119.184 181.967C120.472 181.227 125.724 179.411 126.636 177.338C127.515 175.34 126.2 173.083 124.614 172.612C124.514 172.582 124.408 172.641 124.372 172.74L124.279 172.991C124.215 173.164 123.974 173.171 123.901 173.002C123.831 172.842 123.603 172.836 123.531 172.995C123.25 173.615 122.408 174.676 119.882 175.497C116.299 176.661 114.066 178.471 114.341 181.023C114.359 181.185 114.198 181.296 114.05 181.231C113.757 181.101 113.313 181.08 112.797 181.646C111.901 182.629 112.603 184.779 115.052 186.3C115.168 186.373 115.189 186.537 115.085 186.626C114.719 186.941 114.203 187.642 115.86 188.267C117.556 188.906 118.481 188.689 118.822 188.552C118.914 188.515 118.967 188.42 118.948 188.322L118.512 186.086C118.49 185.971 118.569 185.86 118.686 185.845L119.488 185.739Z" fill="url(#paint40_linear_297_1168)"/>
<path d="M119.643 186.198C119.643 186.198 118.416 183.166 117.127 184.231C115.838 185.297 118.318 187.653 119.463 187.622L119.643 186.198Z" fill="url(#paint41_linear_297_1168)"/>
<path d="M134.739 222.555C134.757 222.556 134.774 222.556 134.792 222.556L157.73 222.533C158.297 222.533 158.756 222.073 158.756 221.505C158.755 220.938 158.293 220.469 157.728 220.479L134.79 220.502C134.223 220.503 133.764 220.963 133.764 221.53C133.765 222.08 134.197 222.528 134.739 222.555Z" fill="url(#paint42_linear_297_1168)"/>
<path d="M166.613 200.042C166.605 200.057 166.597 200.073 166.59 200.089L156.939 220.944C156.7 221.459 156.923 222.071 157.436 222.309C157.95 222.548 158.569 222.326 158.798 221.808L168.449 200.953C168.688 200.438 168.465 199.826 167.952 199.588C167.454 199.357 166.866 199.56 166.613 200.042Z" fill="url(#paint43_linear_297_1168)"/>
<path d="M144.953 223.709C144.853 224.125 135.282 260.101 132.855 269.221C132.575 270.272 133.356 271.304 134.43 271.304C135.178 271.304 135.83 270.788 136.012 270.051L146.636 226.879L144.953 223.709Z" fill="#91B3FA"/>
<path d="M150.194 223.709C150.294 224.125 159.865 260.101 162.292 269.221C162.571 270.272 161.79 271.304 160.717 271.304C159.968 271.304 159.316 270.788 159.135 270.051L148.51 226.879L150.194 223.709Z" fill="#91B3FA"/>
<path d="M150.593 222.533H144.632V227.33C144.632 228.02 145.183 228.579 145.863 228.579H146.68V239.355C146.68 239.877 147.098 240.3 147.612 240.3C148.127 240.3 148.544 239.877 148.544 239.355V228.579H148.959C149.861 228.579 150.593 227.837 150.593 226.922V222.533H150.593Z" fill="#91B3FA"/>
<path d="M129.975 221.38H163.259C163.724 221.38 164.13 221.699 164.247 222.156L164.711 223.983C164.878 224.64 164.387 225.28 163.718 225.276L129.565 225.077C128.903 225.073 128.42 224.44 128.582 223.789L128.986 222.162C129.1 221.702 129.508 221.38 129.975 221.38Z" fill="#BDD0FB"/>
<path d="M321.013 199.655C320.963 199.75 317.833 202.058 317.833 202.058C317.833 202.058 318.524 207.013 321.331 208.97C324.416 211.121 328.774 207.198 328.774 207.198C328.774 207.198 332.242 208.024 334.086 200.789C334.509 199.129 332.067 198.989 329.119 199.295C325.318 199.689 321.013 199.655 321.013 199.655Z" fill="url(#paint44_linear_297_1168)"/>
<path d="M315.163 216.561C316.388 215.718 317.741 215.082 319.176 214.69C319.715 214.543 322.626 215.391 324.425 215.35C326.894 215.293 329.408 214.166 331.444 214.675C333.466 215.18 335.121 215.839 336.077 216.521C338.937 218.559 340.617 222.361 341.64 226.127C339.702 228.121 337.263 229.007 337.263 229.007L336.813 247.312L326.013 252.85L313.686 246.647L314.127 228.759C314.127 228.759 310.213 226.932 309.926 226.267C309.638 225.603 311.71 218.941 315.163 216.561Z" fill="#BDD0FB"/>
<path d="M310.108 226.188C310.108 226.188 304.863 240.763 316.824 246.753C319.308 246.422 318.353 242.289 318.353 242.289C318.353 242.289 313.155 241.136 314.716 228.977C313.279 227.792 310.108 226.188 310.108 226.188Z" fill="url(#paint45_linear_297_1168)"/>
<path d="M341.388 226.188C341.388 226.188 344.997 241.402 334.671 246.753C332.188 246.422 333.143 242.289 333.143 242.289C333.143 242.289 337.332 240.221 336.779 228.977C338.217 227.792 341.388 226.188 341.388 226.188Z" fill="url(#paint46_linear_297_1168)"/>
<path d="M335.715 247.777H315.055C314.224 247.777 313.543 247.095 313.543 246.261V233.262C313.543 232.429 314.224 231.747 315.055 231.747H335.715C336.546 231.747 337.227 232.429 337.227 233.262V246.261C337.227 247.095 336.546 247.777 335.715 247.777Z" fill="url(#paint47_linear_297_1168)"/>
<path d="M347.615 252.529C344.904 251.906 338.64 252.241 338.64 252.241L338.385 252.932L337.963 256.369C337.963 256.369 343.929 257.447 346.87 257.445C347.17 257.444 347.444 257.399 347.695 257.321C347.784 257.24 347.872 257.157 347.955 257.066C349.202 255.701 348.842 253.695 347.615 252.529Z" fill="#91B3FA"/>
<path d="M336.84 252.047L337.901 252.092C338.471 252.117 339.008 252.395 339.391 252.865C339.774 253.334 339.971 253.955 339.938 254.588C339.911 255.093 339.704 255.565 339.364 255.899C339.023 256.234 338.576 256.404 338.122 256.372L336.5 256.256L336.84 252.047Z" fill="url(#paint48_linear_297_1168)"/>
<path d="M301.172 252.198C303.897 251.658 310.151 252.186 310.151 252.186L310.388 252.885L310.724 256.334C310.724 256.334 304.734 257.228 301.795 257.135C301.495 257.125 301.222 257.072 300.973 256.986C300.885 256.903 300.8 256.816 300.719 256.723C299.506 255.32 299.916 253.326 301.172 252.198Z" fill="#91B3FA"/>
<path d="M311.955 252.048L310.893 252.061C310.323 252.068 309.779 252.329 309.384 252.787C308.99 253.244 308.777 253.859 308.795 254.493C308.809 254.998 309.004 255.476 309.336 255.821C309.668 256.166 310.111 256.35 310.565 256.332L312.19 256.266L311.955 252.048Z" fill="url(#paint49_linear_297_1168)"/>
<path d="M348.372 241.753C347.143 238.918 344.137 238.458 341.578 239.784C341.534 239.842 325.329 248.166 311.039 251.814C311.448 253.128 311.659 254.527 311.704 255.902C311.713 256.208 311.707 256.51 311.69 256.808C322.648 256.244 334.542 252.581 344.762 249.362C347.931 248.338 349.735 244.896 348.372 241.753Z" fill="url(#paint50_linear_297_1168)"/>
<path d="M336.918 256.117C336.875 254.532 337.182 253.057 337.84 251.691C337.859 251.629 337.881 251.569 337.901 251.507C337.085 251.254 336.031 250.911 334.646 250.44C324.498 246.959 316.757 243.445 309.368 239.399C306.498 237.828 303.235 238.881 302.316 242.285C301.496 245.324 303.297 247.918 306.03 248.829C314.209 251.557 309.951 250.799 312.622 251.661C319.795 253.884 328.722 255.909 336.935 256.462C336.929 256.347 336.922 256.232 336.918 256.117Z" fill="url(#paint51_linear_297_1168)"/>
<path d="M319.176 214.69C319.176 214.69 320.268 219.43 325.566 219.332C330.963 219.233 331.444 214.675 331.444 214.675L327.919 213.919L327.624 209.982L322.321 210.376L322.223 214.116L319.176 214.69Z" fill="url(#paint52_linear_297_1168)"/>
<path d="M323.066 198.828C323.066 198.828 316.989 210.626 324.197 213.488C329.282 215.507 332.47 205.653 331.519 202.984C330.049 198.858 329.081 199.347 329.081 199.347L323.066 198.828Z" fill="url(#paint53_linear_297_1168)"/>
<path d="M332.982 197.754C335.984 198.581 333.418 205.107 328.898 203.564C324.378 202.021 322.602 202.043 321.898 203.287C321.193 204.531 321.042 208.948 319.514 206.765C317.838 204.371 316.904 199.567 318.958 198.018C320.794 196.634 321.223 194.487 323.425 194.562C326.348 194.661 328.608 193.362 329.927 194.299C331.443 195.374 330.773 197.146 332.982 197.754Z" fill="url(#paint54_linear_297_1168)"/>
<path d="M321.62 204.301C321.62 204.301 320.324 202.904 320.116 204.588C319.909 206.273 320.575 208.442 321.355 207.253C322.136 206.064 321.62 204.301 321.62 204.301Z" fill="url(#paint55_linear_297_1168)"/>
<path d="M326.782 236.088C326.908 236.938 326.453 237.71 325.605 237.836C324.756 237.962 323.967 237.375 323.841 236.524C323.715 235.674 324.104 234.829 324.952 234.703C325.801 234.577 326.657 235.238 326.782 236.088Z" fill="url(#paint56_linear_297_1168)"/>
<path d="M107.968 163.166L106.988 163.469C106.889 163.5 106.785 163.445 106.754 163.346C106.724 163.247 106.779 163.142 106.877 163.112C106.879 163.111 106.881 163.111 106.882 163.11L106.896 163.107L107.86 162.841L107.872 162.838C107.963 162.813 108.057 162.867 108.081 162.957C108.106 163.047 108.055 163.139 107.968 163.166Z" fill="white"/>
<path d="M104.634 163.906L103.609 163.978C103.476 163.988 103.36 163.887 103.351 163.754C103.342 163.621 103.442 163.505 103.575 163.496C103.577 163.496 103.579 163.496 103.582 163.496L103.598 163.495L104.595 163.457L104.61 163.457C104.734 163.452 104.838 163.549 104.843 163.673C104.847 163.795 104.754 163.898 104.634 163.906Z" fill="white"/>
<path d="M101.212 163.89L100.192 163.749C100.03 163.726 99.9175 163.577 99.9398 163.415C99.9623 163.253 100.111 163.14 100.273 163.162C100.276 163.162 100.279 163.163 100.281 163.163L100.299 163.166L101.281 163.335L101.297 163.338C101.449 163.364 101.551 163.509 101.525 163.661C101.499 163.81 101.36 163.911 101.212 163.89Z" fill="white"/>
<path d="M97.8563 163.189L96.8801 162.86C96.7032 162.8 96.6081 162.608 96.6676 162.431C96.7271 162.254 96.9187 162.158 97.0956 162.218C97.0976 162.219 97.0998 162.219 97.1018 162.22L97.1195 162.227L98.0553 162.567L98.0712 162.573C98.2401 162.635 98.3274 162.822 98.2659 162.991C98.2055 163.158 98.0232 163.245 97.8563 163.189Z" fill="white"/>
<path d="M94.6751 161.905L93.7649 161.42C93.5804 161.322 93.5102 161.092 93.6082 160.907C93.7062 160.722 93.9353 160.652 94.1198 160.75C94.122 160.751 94.124 160.753 94.1261 160.754L94.1432 160.763L95.0109 161.252L95.0261 161.261C95.2023 161.36 95.2649 161.584 95.1658 161.76C95.0682 161.934 94.85 161.997 94.6751 161.905Z" fill="white"/>
<path d="M91.7346 160.128L90.9083 159.509C90.7231 159.37 90.6852 159.107 90.8236 158.921C90.962 158.736 91.2247 158.698 91.4099 158.837C91.4121 158.838 91.4143 158.84 91.4163 158.841L91.4328 158.854L92.2145 159.47L92.2292 159.481C92.4057 159.621 92.4363 159.877 92.2977 160.054C92.1611 160.228 91.9108 160.26 91.7346 160.128Z" fill="white"/>
<path d="M89.0941 157.921L88.3688 157.18C88.191 156.998 88.1939 156.707 88.375 156.529C88.556 156.351 88.847 156.353 89.0246 156.535C89.0266 156.537 89.0286 156.539 89.0308 156.541L89.0469 156.558L89.7252 157.285L89.7398 157.301C89.9083 157.482 89.8989 157.765 89.7185 157.934C89.5409 158.1 89.2635 158.093 89.0941 157.921Z" fill="white"/>
<path d="M86.8137 155.336L86.2006 154.505C86.0364 154.283 86.0832 153.969 86.3052 153.804C86.5273 153.64 86.8404 153.687 87.0046 153.909C87.0064 153.912 87.0084 153.914 87.0102 153.917L87.0222 153.934L87.594 154.749L87.6047 154.765C87.7596 154.985 87.7065 155.29 87.4863 155.445C87.2695 155.598 86.9709 155.548 86.8137 155.336Z" fill="white"/>
<path d="M84.8897 152.484L84.3781 151.588C84.2299 151.328 84.3197 150.997 84.5789 150.849C84.838 150.7 85.1683 150.79 85.3165 151.05C85.3182 151.053 85.32 151.056 85.3216 151.059L85.3311 151.077L85.8044 151.954L85.8127 151.97C85.9515 152.227 85.8559 152.548 85.5992 152.687C85.3467 152.824 85.0317 152.733 84.8897 152.484Z" fill="white"/>
<path d="M83.2958 149.439L82.8775 148.497C82.747 148.203 82.8789 147.858 83.1721 147.728C83.4652 147.597 83.8088 147.729 83.9393 148.023C83.9407 148.026 83.9422 148.03 83.9436 148.033L83.9507 148.05L84.334 148.973L84.3402 148.987C84.461 149.278 84.3239 149.612 84.034 149.733C83.7486 149.852 83.4212 149.72 83.2958 149.439Z" fill="white"/>
<path d="M82.0055 146.258L81.6732 145.284C81.564 144.964 81.7343 144.616 82.0534 144.507C82.3727 144.397 82.7199 144.568 82.8292 144.888C82.8297 144.889 82.8304 144.891 82.831 144.893L82.8362 144.909L83.1455 145.861L83.1499 145.875C83.2531 146.192 83.0799 146.533 82.7631 146.637C82.4493 146.739 82.1122 146.569 82.0055 146.258Z" fill="white"/>
<path d="M80.9813 142.988L80.7174 141.994C80.627 141.654 80.8289 141.305 81.1682 141.215C81.5074 141.124 81.8557 141.327 81.9461 141.667C81.9466 141.669 81.947 141.67 81.9475 141.672L81.9512 141.687L82.1946 142.662L82.1975 142.673C82.2819 143.011 82.0772 143.352 81.7407 143.437C81.4076 143.521 81.0695 143.32 80.9813 142.988Z" fill="white"/>
<path d="M80.1709 139.664L79.9636 138.66C79.8896 138.302 80.1192 137.952 80.4766 137.878C80.834 137.804 81.1836 138.034 81.2574 138.392C81.2578 138.394 81.2583 138.396 81.2587 138.398L81.2612 138.411L81.4501 139.398L81.4519 139.408C81.5197 139.763 81.2877 140.106 80.9334 140.174C80.5826 140.242 80.2433 140.013 80.1709 139.664Z" fill="white"/>
<path d="M79.5347 136.31L79.3721 135.299C79.3119 134.925 79.566 134.572 79.9399 134.512C80.3137 134.451 80.6656 134.706 80.7258 135.081C80.7262 135.083 80.7266 135.085 80.7267 135.087L80.7285 135.099L80.8737 136.095L80.8749 136.104C80.929 136.475 80.6725 136.82 80.302 136.874C79.935 136.928 79.5936 136.676 79.5347 136.31Z" fill="white"/>
<path d="M79.0426 132.933L78.9225 131.917C78.8764 131.526 79.1549 131.172 79.5445 131.126C79.9342 131.08 80.2874 131.359 80.3335 131.749C80.3337 131.751 80.3341 131.754 80.3342 131.756L80.3355 131.769L80.4387 132.769L80.4396 132.778C80.4795 133.165 80.1989 133.511 79.8129 133.552C79.4304 133.591 79.0879 133.315 79.0426 132.933Z" fill="white"/>
<path d="M78.6916 129.539L78.614 128.517C78.5831 128.111 78.8863 127.757 79.2912 127.726C79.6961 127.695 80.0495 127.999 80.0803 128.405C80.0805 128.407 80.0807 128.41 80.0809 128.412L80.0816 128.425L80.1431 129.429L80.1437 129.438C80.1683 129.84 79.863 130.186 79.4619 130.211C79.0646 130.235 78.7221 129.935 78.6916 129.539Z" fill="white"/>
<path d="M78.4827 126.131L78.4477 125.107C78.4334 124.686 78.7617 124.334 79.1814 124.319C79.601 124.305 79.9527 124.634 79.9672 125.054C79.9672 125.057 79.9674 125.059 79.9674 125.061L79.9676 125.075L79.9872 126.08L79.9874 126.09C79.9955 126.507 79.6652 126.851 79.2496 126.859C78.8379 126.867 78.4969 126.542 78.4827 126.131Z" fill="white"/>
<path d="M78.4155 122.716L78.4235 121.691C78.427 121.256 78.7811 120.907 79.2147 120.91C79.6483 120.914 79.9971 121.269 79.9937 121.703C79.9937 121.706 79.9937 121.708 79.9937 121.711L79.9933 121.725L79.9706 122.73L79.9704 122.74C79.9608 123.17 79.6049 123.511 79.1755 123.501C78.7503 123.491 78.4125 123.141 78.4155 122.716Z" fill="white"/>
<path d="M78.4932 119.3L78.5449 118.275C78.5676 117.828 78.948 117.483 79.3948 117.506C79.8417 117.529 80.1854 117.91 80.1628 118.358C80.1626 118.36 80.1626 118.363 80.1624 118.365L80.1615 118.38L80.096 119.382L80.0953 119.393C80.0663 119.836 79.6844 120.172 79.2421 120.143C78.8042 120.114 78.4713 119.737 78.4932 119.3Z" fill="white"/>
<path d="M78.7176 115.888L78.8139 114.867C78.8572 114.407 79.2647 114.069 79.7237 114.112C80.1827 114.156 80.5197 114.564 80.4762 115.024C80.476 115.027 80.4756 115.029 80.4755 115.032L80.4738 115.047L80.3648 116.045L80.3635 116.057C80.3138 116.512 79.9053 116.84 79.451 116.791C79.0011 116.741 78.6753 116.338 78.7176 115.888Z" fill="white"/>
<path d="M79.0923 112.488L79.2345 111.471C79.3003 111 79.735 110.671 80.2052 110.737C80.6754 110.803 81.0033 111.239 80.9374 111.71C80.9371 111.713 80.9367 111.715 80.9363 111.718L80.9338 111.734L80.7803 112.726L80.7785 112.737C80.7063 113.203 80.2707 113.523 79.8058 113.45C79.3448 113.379 79.028 112.949 79.0923 112.488Z" fill="white"/>
<path d="M79.62 109.106L79.8091 108.096C79.8992 107.615 80.3615 107.298 80.8417 107.388C81.3219 107.478 81.6381 107.941 81.5481 108.423C81.5476 108.426 81.547 108.428 81.5465 108.431L81.543 108.448L81.344 109.43L81.3415 109.443C81.2451 109.919 80.7822 110.226 80.3074 110.129C79.8374 110.034 79.5322 109.577 79.62 109.106Z" fill="white"/>
<path d="M80.3137 105.751L80.5546 104.752C80.6711 104.269 81.1565 103.971 81.6387 104.088C82.1211 104.205 82.4175 104.691 82.3011 105.175L82.2994 105.181L82.2962 105.194L82.054 106.166L82.0507 106.179C81.931 106.659 81.4455 106.951 80.9662 106.831C80.4895 106.712 80.1987 106.229 80.3137 105.751Z" fill="white"/>
<path d="M81.1744 102.434L81.4651 101.447C81.6075 100.963 82.1143 100.686 82.5971 100.829C83.0798 100.972 83.3558 101.48 83.2134 101.964L83.2114 101.97L83.2074 101.984L82.9173 102.942L82.9133 102.955C82.7678 103.436 82.2611 103.707 81.7815 103.561C81.3042 103.416 81.0337 102.912 81.1744 102.434Z" fill="white"/>
<path d="M82.2019 99.1613L82.5436 98.19C82.7134 97.7075 83.2412 97.4544 83.7227 97.6245C84.2041 97.7947 84.4567 98.3238 84.287 98.8062L84.2847 98.8129L84.2796 98.8267L83.9405 99.7675L83.9355 99.7815C83.7627 100.261 83.2352 100.509 82.7572 100.335C82.2815 100.163 82.0342 99.6386 82.2019 99.1613Z" fill="white"/>
<path d="M83.402 95.9454L83.7962 94.9934C83.9946 94.5143 84.5431 94.287 85.0211 94.486C85.4991 94.6849 85.7259 95.2345 85.5274 95.7136L85.5247 95.7203L85.5185 95.7347L85.1292 96.6547L85.123 96.6692C84.9219 97.1449 84.374 97.3669 83.8994 97.1651C83.4274 96.9643 83.2059 96.4192 83.402 95.9454Z" fill="white"/>
<path d="M84.779 92.7982L85.2277 91.8687C85.4561 91.3952 86.0242 91.1971 86.4968 91.4262C86.9692 91.6552 87.167 92.2247 86.9386 92.698L86.9353 92.7045L86.928 92.7194L86.487 93.6156L86.4796 93.6305C86.2485 94.1003 85.6812 94.2932 85.2124 94.0616C84.746 93.8311 84.5532 93.2665 84.779 92.7982Z" fill="white"/>
<path d="M86.3375 89.7325L86.8406 88.8314C87.1004 88.3662 87.6872 88.2002 88.1513 88.4604C88.6155 88.7207 88.7813 89.3089 88.5216 89.7742L88.5179 89.7805L88.5092 89.7958L88.0167 90.6625L88.008 90.678C87.7458 91.1393 87.16 91.3002 86.6998 91.0374C86.2417 90.7758 86.0806 90.1929 86.3375 89.7325Z" fill="white"/>
<path d="M88.0793 86.7651L88.6378 85.8962C88.9297 85.442 89.5338 85.3111 89.987 85.6038C90.4402 85.8964 90.5708 86.5018 90.2787 86.956L90.2747 86.9622L90.2646 86.9776L89.7198 87.8109L89.7096 87.8265C89.4154 88.2765 88.8127 88.4024 88.3637 88.1074C87.9167 87.8142 87.7905 87.2144 88.0793 86.7651Z" fill="white"/>
<path d="M90.0068 83.9115L90.6229 83.0815C90.9478 82.6438 91.5653 82.5529 92.002 82.8785C92.4386 83.2042 92.5293 83.8231 92.2044 84.2607L92.2028 84.2629L92.1912 84.2785L91.5962 85.0756L91.5845 85.0913C91.2589 85.5275 90.6421 85.6165 90.2069 85.2902C89.7715 84.9638 89.681 84.3476 90.0068 83.9115Z" fill="white"/>
<path d="M92.1246 81.1931L92.7953 80.4058C93.1503 79.9891 93.7753 79.9396 94.1912 80.2956C94.607 80.6514 94.6564 81.2778 94.3014 81.6947L94.2996 81.6967L94.2863 81.7122L93.6397 82.4669L93.6265 82.4824C93.2707 82.8976 92.6465 82.9453 92.2322 82.5887C91.8182 82.232 91.7688 81.6084 92.1246 81.1931Z" fill="white"/>
<path d="M94.4228 78.6233L95.1466 77.8838C95.5312 77.4907 96.1611 77.4847 96.5533 77.8702C96.9456 78.2556 96.9515 78.8869 96.5669 79.28L96.5651 79.2818L96.5504 79.2967L95.854 80.0045L95.8393 80.0194C95.4541 80.4109 94.8252 80.4153 94.4346 80.0293C94.0438 79.6431 94.0377 79.0147 94.4228 78.6233Z" fill="white"/>
<path d="M96.8955 76.2184L97.669 75.532C98.0823 75.1654 98.7136 75.204 99.0795 75.618C99.4452 76.0322 99.4068 76.6649 98.9937 77.0316L98.9917 77.0334L98.9757 77.0474L98.2321 77.7036L98.2162 77.7176C97.8025 78.0825 97.1721 78.0424 96.8078 77.628C96.4437 77.2134 96.4818 76.5833 96.8955 76.2184Z" fill="white"/>
<path d="M99.5295 73.9954L100.35 73.3651C100.79 73.0271 101.42 73.1104 101.757 73.5513C102.094 73.9922 102.011 74.6236 101.571 74.9616L101.569 74.9633L101.552 74.976L100.764 75.5787L100.747 75.5914C100.307 75.9278 99.6779 75.8429 99.3423 75.4018C99.0067 74.9605 99.0894 74.3318 99.5295 73.9954Z" fill="white"/>
<path d="M102.312 71.9613L103.173 71.3887C103.637 71.08 104.262 71.2069 104.57 71.6718C104.878 72.1367 104.752 72.764 104.288 73.0725L104.286 73.074L104.269 73.0851L103.44 73.6329L103.424 73.6442C102.96 73.9511 102.335 73.8229 102.029 73.3578C101.722 72.8927 101.848 72.2684 102.312 71.9613Z" fill="white"/>
<path d="M105.223 70.1207L106.119 69.6064C106.604 69.3276 107.223 69.496 107.501 69.9824C107.779 70.4687 107.611 71.0889 107.126 71.3676L107.123 71.3691L107.107 71.3787L106.244 71.8713L106.227 71.8809C105.741 72.158 105.124 71.9882 104.847 71.5018C104.571 71.0153 104.738 70.3978 105.223 70.1207Z" fill="white"/>
<path d="M108.245 68.4735L109.17 68.0167C109.674 67.768 110.284 67.9758 110.532 68.4809C110.781 68.986 110.573 69.5973 110.069 69.846L110.067 69.8473L110.05 69.8554L109.157 70.2931L109.14 70.3014C108.636 70.5485 108.028 70.3393 107.782 69.8342C107.535 69.3291 107.741 68.7205 108.245 68.4735Z" fill="white"/>
<path d="M111.36 67.0176L112.31 66.6178C112.831 66.3989 113.43 66.6442 113.648 67.1656C113.866 67.6871 113.622 68.2873 113.101 68.5062L113.099 68.5073L113.082 68.5142L112.164 68.8976L112.147 68.9045C111.627 69.1218 111.03 68.8751 110.813 68.3538C110.596 67.8325 110.84 67.2349 111.36 67.0176Z" fill="white"/>
<path d="M114.555 65.7543L115.527 65.4129C116.058 65.2264 116.64 65.5065 116.826 66.0389C117.012 66.5713 116.732 67.154 116.201 67.3405L116.187 67.3453L115.249 67.678L115.233 67.6836C114.701 67.872 114.118 67.5929 113.93 67.0604C113.742 66.5278 114.021 65.9434 114.552 65.7551L114.555 65.7543Z" fill="white"/>
<path d="M117.815 64.6802L118.803 64.3934C119.341 64.2373 119.904 64.5478 120.06 65.0871C120.215 65.6264 119.906 66.19 119.367 66.3464L119.354 66.3502L118.399 66.6304L118.383 66.6349C117.845 66.7927 117.281 66.4834 117.123 65.9438C116.966 65.4042 117.274 64.8387 117.813 64.6809L117.815 64.6802Z" fill="white"/>
<path d="M121.126 63.7862L122.128 63.5522C122.671 63.4254 123.214 63.7638 123.34 64.3082C123.467 64.8524 123.129 65.3964 122.586 65.5231L122.573 65.5262L121.602 65.7556L121.587 65.7593C121.044 65.8876 120.499 65.5504 120.371 65.0056C120.243 64.4609 120.579 63.9153 121.123 63.7869L121.126 63.7862Z" fill="white"/>
<path d="M124.478 63.0676L125.491 62.8854C126.037 62.7873 126.559 63.1514 126.657 63.6989C126.755 64.2463 126.392 64.7698 125.846 64.868L125.833 64.8702L124.851 65.0496L124.836 65.0523C124.289 65.1522 123.765 64.7891 123.665 64.2411C123.566 63.6931 123.928 63.168 124.475 63.0682L124.478 63.0676Z" fill="white"/>
<path d="M127.861 62.5205L128.882 62.3893C129.429 62.3187 129.931 62.7067 130.001 63.2558C130.071 63.8049 129.684 64.3071 129.136 64.3776L129.124 64.3791L128.133 64.5094L128.119 64.5113C127.57 64.5834 127.067 64.1964 126.995 63.6467C126.923 63.0971 127.31 62.5931 127.858 62.5209L127.861 62.5205Z" fill="white"/>
<path d="M131.266 62.1416L132.291 62.0603C132.839 62.0169 133.318 62.4269 133.362 62.976C133.405 63.5253 132.996 64.0056 132.448 64.0493L132.437 64.0502L131.441 64.132L131.426 64.1331C130.878 64.1782 130.397 63.7689 130.352 63.2191C130.307 62.6693 130.715 62.1869 131.263 62.1418L131.266 62.1416Z" fill="white"/>
<path d="M134.683 61.9282L135.708 61.8953C136.255 61.8778 136.712 62.3078 136.73 62.8558C136.747 63.4038 136.318 63.8623 135.771 63.88L135.761 63.8803L134.763 63.9153L134.749 63.9158C134.202 63.9349 133.742 63.5054 133.723 62.9567C133.704 62.408 134.133 61.9474 134.68 61.9283L134.683 61.9282Z" fill="white"/>
<path d="M138.101 61.8713L139.126 61.8831C139.67 61.8893 140.106 62.3367 140.1 62.8823C140.094 63.428 139.648 63.8653 139.103 63.8591L139.093 63.8589L138.093 63.8503L138.081 63.8502C137.535 63.8454 137.097 63.3987 137.102 62.8522C137.107 62.3056 137.553 61.8665 138.098 61.8713H138.101Z" fill="white"/>
<path d="M141.517 61.9603L142.54 62.0145C143.081 62.0431 143.496 62.506 143.468 63.0483C143.439 63.5907 142.978 64.0071 142.436 63.9785L142.427 63.9782L141.428 63.9282L141.416 63.9276C140.874 63.9005 140.456 63.4382 140.484 62.8949C140.511 62.3516 140.972 61.9332 141.514 61.9605L141.517 61.9603Z" fill="white"/>
<path d="M144.923 62.188L145.943 62.282C146.48 62.3314 146.875 62.808 146.826 63.3462C146.776 63.8843 146.301 64.2805 145.764 64.2311L145.755 64.2303L144.758 64.1412L144.747 64.1402C144.209 64.0922 143.811 63.6162 143.859 63.0769C143.907 62.5378 144.382 62.1396 144.92 62.1878L144.923 62.188Z" fill="white"/>
<path d="M148.316 62.5454L149.331 62.6767C149.863 62.7456 150.239 63.234 150.17 63.7673C150.101 64.3007 149.614 64.6773 149.082 64.6084L149.074 64.6074L148.08 64.4816L148.07 64.4803C147.536 64.4129 147.159 63.9249 147.226 63.3905C147.293 62.8562 147.78 62.4776 148.313 62.5451L148.316 62.5454Z" fill="white"/>
<path d="M151.692 63.0243L152.701 63.1905C153.228 63.2772 153.585 63.7758 153.498 64.304C153.412 64.8322 152.914 65.19 152.387 65.1032L152.381 65.1022L151.39 64.942L151.381 64.9403C150.853 64.8549 150.494 64.3567 150.579 63.8276C150.664 63.2985 151.161 62.9387 151.689 63.0242L151.692 63.0243Z" fill="white"/>
<path d="M155.048 63.6164L156.049 63.8145C156.571 63.9176 156.91 64.4249 156.807 64.9474C156.704 65.47 156.198 65.8098 155.676 65.7067L155.67 65.7054L154.686 65.5134L154.677 65.5116C154.154 65.4098 153.813 64.9027 153.915 64.3791C154.016 63.8554 154.522 63.5136 155.045 63.6154L155.048 63.6164Z" fill="white"/>
<path d="M158.379 64.3127L159.374 64.5409C159.89 64.6591 160.212 65.1738 160.094 65.6904C159.976 66.2069 159.462 66.53 158.947 66.4118L158.942 66.4105L157.962 66.1887L157.954 66.1869C157.437 66.07 157.113 65.5554 157.229 65.0376C157.346 64.5198 157.859 64.1949 158.376 64.3118L158.379 64.3127Z" fill="white"/>
<path d="M161.689 65.1064L162.678 65.3624C163.187 65.4942 163.494 66.0151 163.362 66.5256C163.23 67.0364 162.711 67.3433 162.201 67.2114L162.196 67.2102L161.222 66.9609L161.215 66.9589C160.704 66.8282 160.396 66.3074 160.526 65.7958C160.656 65.284 161.176 64.9751 161.686 65.1056L161.689 65.1064Z" fill="white"/>
<path d="M164.976 65.9894L165.957 66.2707C166.46 66.4149 166.752 66.9409 166.608 67.4454C166.464 67.95 165.939 68.242 165.436 68.0978L165.432 68.0967L164.463 67.822L164.456 67.82C163.952 67.6769 163.658 67.1511 163.801 66.6453C163.944 66.1396 164.469 65.8456 164.973 65.9887L164.976 65.9894Z" fill="white"/>
<path d="M168.236 66.9538L169.21 67.2582C169.707 67.4136 169.984 67.9438 169.829 68.4422C169.674 68.9407 169.145 69.2187 168.648 69.0633L168.644 69.0622L167.682 68.7644L167.676 68.7625C167.177 68.6082 166.898 68.0782 167.052 67.5784C167.206 67.0787 167.735 66.7987 168.233 66.9531L168.236 66.9538Z" fill="white"/>
<path d="M171.472 67.9929L172.438 68.318C172.929 68.4834 173.194 69.0169 173.028 69.5093C172.863 70.0018 172.331 70.2669 171.84 70.1013L171.837 70.1002L170.881 69.7815L170.876 69.7796C170.383 69.6153 170.117 69.0818 170.281 68.5882C170.445 68.0945 170.977 67.8274 171.47 67.9918L171.472 67.9929Z" fill="white"/>
<path d="M174.681 69.0992L175.639 69.4434C176.125 69.618 176.377 70.1538 176.203 70.6403C176.029 71.1269 175.494 71.38 175.009 71.2056L175.006 71.2047L174.058 70.8671L174.053 70.8652C173.566 70.692 173.311 70.156 173.484 69.6682C173.657 69.1803 174.192 68.9254 174.679 69.0987L174.681 69.0992Z" fill="white"/>
<path d="M177.868 70.2689L178.818 70.6313C179.298 70.8142 179.538 71.3522 179.356 71.8327C179.173 72.3134 178.636 72.5547 178.157 72.3718L178.154 72.3709L177.213 72.0149L177.208 72.0131C176.727 71.8313 176.485 71.2931 176.666 70.8113C176.848 70.3294 177.385 70.0862 177.865 70.268L177.868 70.2689Z" fill="white"/>
<path d="M181.03 71.4991L181.974 71.8798C182.448 72.0707 182.677 72.6103 182.487 73.0851C182.296 73.5598 181.758 73.7898 181.284 73.5989L181.282 73.598L180.346 73.2236L180.341 73.2216C179.866 73.0316 179.635 72.4918 179.824 72.016C180.014 71.54 180.553 71.3082 181.027 71.4982L181.03 71.4991Z" fill="white"/>
<path d="M184.169 72.7884L185.106 73.1862C185.574 73.3847 185.792 73.9256 185.594 74.3944C185.396 74.8631 184.856 75.082 184.388 74.8835L184.386 74.8825L183.457 74.4911L183.453 74.4891C182.984 74.2915 182.763 73.7504 182.96 73.2804C183.158 72.8104 183.698 72.5895 184.166 72.7871L184.169 72.7884Z" fill="white"/>
<path d="M187.284 74.134L188.214 74.5483C188.676 74.754 188.884 75.296 188.678 75.7587C188.473 76.2214 187.932 76.4298 187.471 76.2242L187.469 76.2232L186.547 75.8154L186.542 75.8134C186.079 75.6087 185.87 75.0665 186.074 74.6023C186.278 74.1383 186.819 73.9282 187.282 74.1329L187.284 74.134Z" fill="white"/>
<path d="M190.375 75.5334L191.297 75.9634C191.753 76.176 191.951 76.7185 191.739 77.1752C191.527 77.6322 190.985 77.8302 190.53 77.6176L190.528 77.6169L189.612 77.1932L189.608 77.1914C189.151 76.98 188.952 76.4371 189.163 75.9789C189.374 75.5207 189.915 75.3209 190.373 75.5323L190.375 75.5334Z" fill="white"/>
<path d="M193.441 76.9845L194.356 77.4296C194.806 77.6483 194.994 78.1913 194.775 78.6422C194.557 79.0931 194.015 79.2813 193.565 79.0623L193.564 79.0616L192.655 78.6231L192.651 78.6213C192.2 78.4034 192.01 77.8602 192.228 77.4078C192.445 76.9556 192.987 76.7656 193.438 76.9834L193.441 76.9845Z" fill="white"/>
<path d="M196.483 78.4847L197.391 78.944C197.835 79.1687 198.013 79.7116 197.789 80.1567C197.565 80.6018 197.023 80.7805 196.579 80.5558L196.577 80.5551L195.676 80.102L195.672 80.1002C195.227 79.8763 195.046 79.3331 195.27 78.8865C195.493 78.4402 196.035 78.2596 196.481 78.4834L196.483 78.4847Z" fill="white"/>
<path d="M199.498 80.0365L200.396 80.5114C200.83 80.7409 200.996 81.2791 200.767 81.7136C200.539 82.1456 200.007 82.3125 199.575 82.0889L199.571 82.0869L198.676 81.6236L198.672 81.6218C198.235 81.3951 198.063 80.8556 198.289 80.4169C198.515 79.9782 199.054 79.8062 199.491 80.0329L199.498 80.0365Z" fill="white"/>
<path d="M202.485 81.6365L203.376 82.1245C203.799 82.3561 203.954 82.8876 203.723 83.3116C203.493 83.7331 202.968 83.8896 202.546 83.6634L202.542 83.6614L201.654 83.1849L201.651 83.1831C201.223 82.954 201.062 82.4212 201.291 81.9931C201.52 81.5649 202.051 81.4036 202.478 81.6327L202.485 81.6365Z" fill="white"/>
<path d="M205.449 83.2792L206.333 83.7796C206.746 84.0131 206.891 84.5376 206.658 84.9511C206.426 85.3622 205.908 85.5087 205.496 85.2807L205.493 85.2787L204.611 84.7896L204.608 84.788C204.191 84.5569 204.04 84.0311 204.271 83.6134C204.501 83.1958 205.026 83.0445 205.442 83.2754L205.449 83.2792Z" fill="white"/>
<path d="M208.39 84.9622L209.267 85.4743C209.669 85.7093 209.806 86.2263 209.571 86.6294C209.338 87.0303 208.827 87.1674 208.426 86.9382L208.422 86.9363L207.546 86.4353L207.543 86.4336C207.137 86.2011 206.995 85.6825 207.227 85.2751C207.459 84.8676 207.977 84.726 208.383 84.9583L208.39 84.9622Z" fill="white"/>
<path d="M211.307 86.6829L212.178 87.2063C212.57 87.442 212.697 87.9516 212.462 88.3447C212.228 88.7354 211.724 88.8638 211.333 88.6336L211.33 88.6318L210.459 88.1192L210.457 88.1176C210.06 87.8842 209.928 87.3729 210.161 86.9758C210.394 86.5785 210.904 86.4458 211.3 86.6792L211.307 86.6829Z" fill="white"/>
<path d="M214.203 88.4402L215.067 88.9742C215.45 89.2102 215.569 89.7122 215.333 90.0953C215.099 90.4762 214.602 90.5962 214.221 90.3655L214.218 90.3636L213.354 89.8404L213.351 89.8389C212.965 89.6049 212.84 89.1013 213.074 88.714C213.307 88.3267 213.81 88.2024 214.196 88.4364L214.203 88.4402Z" fill="white"/>
<path d="M217.078 90.2322L217.936 90.7762C218.309 91.0122 218.42 91.5062 218.184 91.8796C217.95 92.2509 217.462 92.3629 217.09 92.1322L217.087 92.1305L216.228 91.5969L216.226 91.5954C215.849 91.3614 215.733 90.8656 215.967 90.4882C216.2 90.1107 216.695 89.9943 217.072 90.2283L217.078 90.2322Z" fill="white"/>
<path d="M219.933 92.0565L220.786 92.61C221.149 92.8456 221.252 93.3315 221.017 93.6953C220.783 94.0571 220.303 94.1618 219.94 93.9313L219.938 93.9298L219.085 93.3867L219.083 93.3853C218.715 93.1515 218.607 92.6638 218.84 92.2958C219.073 91.9278 219.56 91.8191 219.927 92.0527L219.933 92.0565Z" fill="white"/>
<path d="M222.768 93.9118L223.615 94.474C223.969 94.7087 224.066 95.1865 223.831 95.5409C223.598 95.8933 223.126 95.9913 222.773 95.7614L222.77 95.76L221.923 95.2078L221.921 95.2065C221.563 94.9734 221.461 94.494 221.694 94.1353C221.926 93.7767 222.405 93.6749 222.762 93.908L222.768 93.9118Z" fill="white"/>
<path d="M225.584 95.7954L226.425 96.3658C226.769 96.5994 226.86 97.0687 226.627 97.414C226.395 97.7572 225.93 97.8487 225.587 97.62L225.585 97.6185L224.742 97.058L224.74 97.0567C224.391 96.8247 224.297 96.3536 224.528 96.0042C224.759 95.6547 225.23 95.5596 225.578 95.7914L225.584 95.7954Z" fill="white"/>
<path d="M228.381 97.706L229.217 98.284C229.552 98.5162 229.636 98.9769 229.405 99.3131C229.175 99.6474 228.719 99.7329 228.384 99.5056L228.382 99.5043L227.544 98.936L227.543 98.9349C227.203 98.7044 227.114 98.2416 227.344 97.9012C227.574 97.5609 228.036 97.4718 228.375 97.7023L228.381 97.706Z" fill="white"/>
<path d="M231.16 99.6411L231.991 100.226C232.318 100.456 232.396 100.909 232.166 101.236C231.938 101.562 231.491 101.641 231.164 101.416L231.163 101.415L230.33 100.839L230.329 100.838C229.998 100.609 229.915 100.155 230.143 99.8234C230.371 99.4918 230.824 99.4085 231.155 99.6373L231.16 99.6411Z" fill="white"/>
<path d="M233.922 101.599L234.747 102.191C235.065 102.419 235.139 102.862 234.911 103.181C234.685 103.498 234.244 103.572 233.927 103.348L233.099 102.766C232.776 102.54 232.697 102.095 232.923 101.771C233.148 101.448 233.593 101.369 233.915 101.595L233.922 101.599Z" fill="white"/>
<path d="M236.668 103.578L237.488 104.174C237.798 104.4 237.867 104.834 237.643 105.145C237.419 105.454 236.988 105.523 236.679 105.303L235.854 104.715C235.54 104.491 235.466 104.055 235.689 103.74C235.912 103.425 236.347 103.351 236.662 103.574L236.668 103.578Z" fill="white"/>
<path d="M239.401 105.566L240.22 106.161C240.523 106.382 240.591 106.807 240.371 107.111C240.153 107.413 239.732 107.482 239.429 107.266L238.603 106.677C238.296 106.458 238.224 106.03 238.443 105.723C238.662 105.415 239.088 105.343 239.395 105.562L239.401 105.566Z" fill="white"/>
<path d="M242.134 107.547L242.955 108.137L242.957 108.138C243.254 108.352 243.323 108.768 243.109 109.066C242.897 109.363 242.486 109.432 242.188 109.223L241.359 108.637C241.057 108.425 240.985 108.007 241.197 107.705C241.409 107.403 241.826 107.33 242.128 107.543L242.134 107.547Z" fill="white"/>
<path d="M244.878 109.504L245.706 110.084L245.708 110.086C246.002 110.292 246.073 110.697 245.868 110.991C245.664 111.283 245.262 111.356 244.969 111.154L244.132 110.578C243.835 110.374 243.759 109.966 243.963 109.668C244.167 109.37 244.574 109.295 244.871 109.499L244.876 109.503L244.878 109.504Z" fill="white"/>
<path d="M247.647 111.422L248.483 111.987L248.486 111.989C248.777 112.185 248.853 112.58 248.658 112.87C248.464 113.159 248.073 113.237 247.783 113.045L246.935 112.483C246.641 112.289 246.56 111.892 246.755 111.597C246.949 111.303 247.345 111.222 247.639 111.416L247.643 111.419L247.647 111.422Z" fill="white"/>
<path d="M250.449 113.282L251.298 113.827L251.302 113.829C251.59 114.014 251.674 114.397 251.49 114.686C251.307 114.973 250.927 115.057 250.64 114.877L249.778 114.335C249.486 114.151 249.398 113.766 249.581 113.474C249.764 113.182 250.149 113.094 250.44 113.277L250.445 113.28L250.449 113.282Z" fill="white"/>
<path d="M253.293 115.073L254.157 115.594L254.162 115.597C254.443 115.767 254.534 116.133 254.365 116.415C254.197 116.694 253.836 116.786 253.556 116.623L252.674 116.108C252.387 115.94 252.29 115.571 252.457 115.283C252.624 114.995 252.993 114.897 253.28 115.065C253.282 115.066 253.284 115.067 253.285 115.067L253.293 115.073Z" fill="white"/>
<path d="M256.191 116.773L257.071 117.261L257.077 117.265C257.352 117.417 257.452 117.765 257.299 118.041C257.148 118.314 256.806 118.415 256.532 118.268L255.633 117.787C255.352 117.636 255.246 117.285 255.396 117.003C255.546 116.721 255.896 116.615 256.177 116.766C256.179 116.767 256.18 116.767 256.182 116.768L256.191 116.773Z" fill="white"/>
<path d="M259.147 118.357L260.045 118.806L260.052 118.809C260.321 118.944 260.431 119.272 260.297 119.542C260.163 119.81 259.841 119.92 259.572 119.791L258.654 119.349C258.379 119.216 258.263 118.885 258.395 118.609C258.527 118.333 258.857 118.217 259.133 118.35C259.134 118.351 259.136 118.351 259.137 118.352L259.147 118.357Z" fill="white"/>
<path d="M262.167 119.804L263.086 120.208L263.094 120.211C263.357 120.327 263.477 120.635 263.361 120.899C263.247 121.16 262.944 121.28 262.682 121.17L261.743 120.773C261.474 120.659 261.348 120.349 261.461 120.08C261.574 119.81 261.884 119.684 262.153 119.797C262.154 119.798 262.156 119.799 262.157 119.799L262.167 119.804Z" fill="white"/>
<path d="M265.256 121.093L266.197 121.446L266.205 121.449C266.462 121.545 266.592 121.832 266.496 122.089C266.401 122.344 266.119 122.474 265.865 122.383L264.902 122.037C264.64 121.943 264.504 121.655 264.597 121.392C264.691 121.13 264.979 120.993 265.241 121.087C265.243 121.088 265.244 121.088 265.245 121.089L265.256 121.093Z" fill="white"/>
<path d="M268.414 122.194L269.375 122.481L269.384 122.484C269.634 122.559 269.775 122.822 269.701 123.072C269.627 123.319 269.369 123.461 269.121 123.391L268.137 123.112C267.883 123.04 267.735 122.775 267.807 122.52C267.879 122.265 268.143 122.117 268.398 122.189C268.399 122.189 268.4 122.19 268.402 122.19L268.414 122.194Z" fill="white"/>
<path d="M271.639 123.073L272.618 123.293L272.628 123.295C272.868 123.349 273.02 123.589 272.966 123.83C272.913 124.069 272.677 124.22 272.439 124.17L271.438 123.961C271.193 123.91 271.035 123.669 271.086 123.423C271.137 123.177 271.378 123.019 271.623 123.07C271.625 123.071 271.626 123.071 271.628 123.071L271.639 123.073Z" fill="white"/>
<path d="M274.92 123.723L275.912 123.872L275.921 123.873C276.152 123.908 276.311 124.123 276.276 124.354C276.242 124.583 276.031 124.741 275.803 124.711L274.79 124.574C274.555 124.543 274.39 124.326 274.421 124.091C274.453 123.855 274.669 123.69 274.904 123.721C274.905 123.722 274.907 123.722 274.908 123.722L274.92 123.723Z" fill="white"/>
<path d="M278.239 124.13L279.24 124.203L279.249 124.203C279.468 124.219 279.632 124.41 279.617 124.629C279.601 124.846 279.414 125.01 279.198 124.998L278.177 124.939C277.954 124.926 277.784 124.735 277.797 124.511C277.809 124.287 278.001 124.117 278.224 124.129C278.225 124.129 278.226 124.13 278.228 124.13L278.239 124.13Z" fill="white"/>
<path d="M281.58 124.277L282.583 124.268H282.593C282.799 124.266 282.967 124.432 282.969 124.638C282.971 124.842 282.808 125.01 282.605 125.015L281.583 125.039C281.374 125.044 281.199 124.878 281.194 124.668C281.189 124.457 281.355 124.283 281.565 124.278C281.566 124.278 281.568 124.278 281.569 124.278L281.58 124.277Z" fill="white"/>
<path d="M284.921 124.144L285.919 124.046L285.929 124.045C286.12 124.027 286.29 124.167 286.309 124.358C286.327 124.548 286.19 124.717 286.001 124.739L284.985 124.853C284.79 124.875 284.615 124.735 284.593 124.539C284.571 124.344 284.711 124.168 284.906 124.146C284.907 124.146 284.908 124.146 284.909 124.145L284.921 124.144Z" fill="white"/>
<path d="M288.235 123.709L289.22 123.518L289.229 123.516C289.403 123.482 289.571 123.596 289.604 123.77C289.638 123.942 289.527 124.108 289.357 124.145L288.357 124.359C288.179 124.397 288.003 124.283 287.965 124.105C287.927 123.926 288.041 123.75 288.219 123.712C288.221 123.711 288.222 123.711 288.224 123.711L288.235 123.709Z" fill="white"/>
<path d="M291.492 122.954L292.452 122.661L292.461 122.659C292.612 122.612 292.773 122.698 292.819 122.85C292.864 123 292.781 123.158 292.633 123.207L291.662 123.525C291.506 123.576 291.338 123.49 291.287 123.334C291.236 123.178 291.322 123.01 291.477 122.959C291.479 122.959 291.48 122.958 291.482 122.958L291.492 122.954Z" fill="white"/>
<path d="M294.65 121.853L295.57 121.453L295.579 121.449C295.707 121.393 295.856 121.452 295.912 121.581C295.967 121.708 295.91 121.856 295.785 121.913L294.856 122.339C294.723 122.4 294.567 122.342 294.506 122.209C294.446 122.076 294.504 121.919 294.636 121.859C294.638 121.858 294.639 121.858 294.64 121.857L294.65 121.853Z" fill="white"/>
<path d="M297.66 120.391L298.527 119.883L298.534 119.878C298.639 119.817 298.774 119.852 298.835 119.957C298.896 120.061 298.863 120.195 298.761 120.257L297.89 120.792C297.781 120.859 297.639 120.825 297.573 120.716C297.507 120.607 297.541 120.465 297.649 120.398C297.65 120.398 297.651 120.397 297.652 120.397L297.66 120.391Z" fill="white"/>
</g>
<defs>
<linearGradient id="paint0_linear_297_1168" x1="39.8891" y1="139.37" x2="404.1" y2="139.37" gradientUnits="userSpaceOnUse">
<stop stop-color="#DAE3FE"/>
<stop offset="1" stop-color="#E9EFFD"/>
</linearGradient>
<linearGradient id="paint1_linear_297_1168" x1="65.392" y1="197.698" x2="156.995" y2="197.698" gradientUnits="userSpaceOnUse">
<stop stop-color="#DAE3FE"/>
<stop offset="1" stop-color="#E9EFFD"/>
</linearGradient>
<linearGradient id="paint2_linear_297_1168" x1="63.4326" y1="216.629" x2="166.069" y2="216.629" gradientUnits="userSpaceOnUse">
<stop stop-color="#DAE3FE"/>
<stop offset="1" stop-color="#E9EFFD"/>
</linearGradient>
<linearGradient id="paint3_linear_297_1168" x1="63.4326" y1="221.618" x2="163.659" y2="221.618" gradientUnits="userSpaceOnUse">
<stop stop-color="#DAE3FE"/>
<stop offset="1" stop-color="#E9EFFD"/>
</linearGradient>
<linearGradient id="paint4_linear_297_1168" x1="63.4326" y1="225.291" x2="162.423" y2="225.291" gradientUnits="userSpaceOnUse">
<stop stop-color="#DAE3FE"/>
<stop offset="1" stop-color="#E9EFFD"/>
</linearGradient>
<linearGradient id="paint5_linear_297_1168" x1="173.501" y1="224.571" x2="52.0238" y2="224.571" gradientUnits="userSpaceOnUse">
<stop stop-color="#4042E2"/>
<stop offset="1" stop-color="#4F52FF"/>
</linearGradient>
<linearGradient id="paint6_linear_297_1168" x1="221.527" y1="255.157" x2="243.942" y2="64.24" gradientUnits="userSpaceOnUse">
<stop stop-color="#09005D"/>
<stop offset="1" stop-color="#1A0F91"/>
</linearGradient>
<linearGradient id="paint7_linear_297_1168" x1="347.962" y1="40.243" x2="1.30193" y2="435.308" gradientUnits="userSpaceOnUse">
<stop stop-color="#4042E2"/>
<stop offset="1" stop-color="#4F52FF"/>
</linearGradient>
<linearGradient id="paint8_linear_297_1168" x1="108.13" y1="171.064" x2="108.965" y2="171.064" gradientUnits="userSpaceOnUse">
<stop stop-color="#DAE3FE"/>
<stop offset="1" stop-color="#E9EFFD"/>
</linearGradient>
<linearGradient id="paint9_linear_297_1168" x1="107.29" y1="119.32" x2="194.774" y2="119.32" gradientUnits="userSpaceOnUse">
<stop stop-color="#DAE3FE"/>
<stop offset="1" stop-color="#E9EFFD"/>
</linearGradient>
<linearGradient id="paint10_linear_297_1168" x1="233.021" y1="191.055" x2="235.755" y2="293.065" gradientUnits="userSpaceOnUse">
<stop stop-color="#09005D"/>
<stop offset="1" stop-color="#1A0F91"/>
</linearGradient>
<linearGradient id="paint11_linear_297_1168" x1="132.444" y1="166.508" x2="339.493" y2="166.508" gradientUnits="userSpaceOnUse">
<stop stop-color="#DAE3FE"/>
<stop offset="1" stop-color="#E9EFFD"/>
</linearGradient>
<linearGradient id="paint12_linear_297_1168" x1="233.32" y1="146.377" x2="56.2416" y2="251.169" gradientUnits="userSpaceOnUse">
<stop stop-color="#4042E2"/>
<stop offset="1" stop-color="#4F52FF"/>
</linearGradient>
<linearGradient id="paint13_linear_297_1168" x1="271.969" y1="139.078" x2="323.946" y2="139.078" gradientUnits="userSpaceOnUse">
<stop stop-color="#DAE3FE"/>
<stop offset="1" stop-color="#E9EFFD"/>
</linearGradient>
<linearGradient id="paint14_linear_297_1168" x1="271.969" y1="171.018" x2="323.946" y2="171.018" gradientUnits="userSpaceOnUse">
<stop stop-color="#DAE3FE"/>
<stop offset="1" stop-color="#E9EFFD"/>
</linearGradient>
<linearGradient id="paint15_linear_297_1168" x1="271.969" y1="202.959" x2="323.946" y2="202.959" gradientUnits="userSpaceOnUse">
<stop stop-color="#DAE3FE"/>
<stop offset="1" stop-color="#E9EFFD"/>
</linearGradient>
<linearGradient id="paint16_linear_297_1168" x1="132.443" y1="119.602" x2="339.492" y2="119.602" gradientUnits="userSpaceOnUse">
<stop stop-color="#DAE3FE"/>
<stop offset="1" stop-color="#E9EFFD"/>
</linearGradient>
<linearGradient id="paint17_linear_297_1168" x1="236.95" y1="187.622" x2="259.819" y2="187.622" gradientUnits="userSpaceOnUse">
<stop stop-color="#DAE3FE"/>
<stop offset="1" stop-color="#E9EFFD"/>
</linearGradient>
<linearGradient id="paint18_linear_297_1168" x1="244.37" y1="187.54" x2="256.248" y2="187.54" gradientUnits="userSpaceOnUse">
<stop stop-color="#DAE3FE"/>
<stop offset="1" stop-color="#E9EFFD"/>
</linearGradient>
<linearGradient id="paint19_linear_297_1168" x1="232.918" y1="171.095" x2="166.776" y2="180.847" gradientUnits="userSpaceOnUse">
<stop stop-color="#FE7062"/>
<stop offset="1" stop-color="#FF928E"/>
</linearGradient>
<linearGradient id="paint20_linear_297_1168" x1="236.645" y1="118.29" x2="187.908" y2="170.448" gradientUnits="userSpaceOnUse">
<stop stop-color="#E1473D"/>
<stop offset="1" stop-color="#E9605A"/>
</linearGradient>
<linearGradient id="paint21_linear_297_1168" x1="193.882" y1="153.544" x2="222.578" y2="153.544" gradientUnits="userSpaceOnUse">
<stop stop-color="#FE7062"/>
<stop offset="1" stop-color="#FF928E"/>
</linearGradient>
<linearGradient id="paint22_linear_297_1168" x1="177.91" y1="131.649" x2="190.536" y2="197.445" gradientUnits="userSpaceOnUse">
<stop stop-color="#FE7062"/>
<stop offset="1" stop-color="#FF928E"/>
</linearGradient>
<linearGradient id="paint23_linear_297_1168" x1="333.635" y1="61.1204" x2="315.596" y2="149.477" gradientUnits="userSpaceOnUse">
<stop stop-color="#09005D"/>
<stop offset="1" stop-color="#1A0F91"/>
</linearGradient>
<linearGradient id="paint24_linear_297_1168" x1="365.604" y1="11.0442" x2="331.738" y2="78.627" gradientUnits="userSpaceOnUse">
<stop stop-color="#09005D"/>
<stop offset="1" stop-color="#1A0F91"/>
</linearGradient>
<linearGradient id="paint25_linear_297_1168" x1="347.669" y1="59.5527" x2="373.904" y2="157.715" gradientUnits="userSpaceOnUse">
<stop stop-color="#09005D"/>
<stop offset="1" stop-color="#1A0F91"/>
</linearGradient>
<linearGradient id="paint26_linear_297_1168" x1="90.208" y1="255.822" x2="96.6445" y2="255.822" gradientUnits="userSpaceOnUse">
<stop stop-color="#FE7062"/>
<stop offset="1" stop-color="#FF928E"/>
</linearGradient>
<linearGradient id="paint27_linear_297_1168" x1="111.041" y1="255.822" x2="117.477" y2="255.822" gradientUnits="userSpaceOnUse">
<stop stop-color="#FE7062"/>
<stop offset="1" stop-color="#FF928E"/>
</linearGradient>
<linearGradient id="paint28_linear_297_1168" x1="89.9443" y1="239.006" x2="117.725" y2="239.006" gradientUnits="userSpaceOnUse">
<stop stop-color="#FE7062"/>
<stop offset="1" stop-color="#FF928E"/>
</linearGradient>
<linearGradient id="paint29_linear_297_1168" x1="136.927" y1="239.824" x2="132.702" y2="268.952" gradientUnits="userSpaceOnUse">
<stop stop-color="#4042E2"/>
<stop offset="1" stop-color="#4F52FF"/>
</linearGradient>
<linearGradient id="paint30_linear_297_1168" x1="125.833" y1="264.847" x2="129.999" y2="264.847" gradientUnits="userSpaceOnUse">
<stop stop-color="#FF928E"/>
<stop offset="1" stop-color="#FEB3B1"/>
</linearGradient>
<linearGradient id="paint31_linear_297_1168" x1="157.765" y1="242.847" x2="153.539" y2="271.975" gradientUnits="userSpaceOnUse">
<stop stop-color="#4042E2"/>
<stop offset="1" stop-color="#4F52FF"/>
</linearGradient>
<linearGradient id="paint32_linear_297_1168" x1="124.787" y1="244.079" x2="145.178" y2="284.77" gradientUnits="userSpaceOnUse">
<stop stop-color="#09005D"/>
<stop offset="1" stop-color="#1A0F91"/>
</linearGradient>
<linearGradient id="paint33_linear_297_1168" x1="145.565" y1="265.198" x2="150.539" y2="265.198" gradientUnits="userSpaceOnUse">
<stop stop-color="#FF928E"/>
<stop offset="1" stop-color="#FEB3B1"/>
</linearGradient>
<linearGradient id="paint34_linear_297_1168" x1="95.4653" y1="219.336" x2="135.817" y2="254.52" gradientUnits="userSpaceOnUse">
<stop stop-color="#09005D"/>
<stop offset="1" stop-color="#1A0F91"/>
</linearGradient>
<linearGradient id="paint35_linear_297_1168" x1="122.909" y1="183.964" x2="111.985" y2="206.673" gradientUnits="userSpaceOnUse">
<stop stop-color="#FF928E"/>
<stop offset="1" stop-color="#FEB3B1"/>
</linearGradient>
<linearGradient id="paint36_linear_297_1168" x1="119.36" y1="215.554" x2="101.882" y2="251.524" gradientUnits="userSpaceOnUse">
<stop stop-color="#FE7062"/>
<stop offset="1" stop-color="#FF928E"/>
</linearGradient>
<linearGradient id="paint37_linear_297_1168" x1="127.321" y1="189.126" x2="123.395" y2="196.96" gradientUnits="userSpaceOnUse">
<stop stop-color="#E1473D"/>
<stop offset="1" stop-color="#E9605A"/>
</linearGradient>
<linearGradient id="paint38_linear_297_1168" x1="138.887" y1="219.057" x2="150.376" y2="219.057" gradientUnits="userSpaceOnUse">
<stop stop-color="#FF928E"/>
<stop offset="1" stop-color="#FEB3B1"/>
</linearGradient>
<linearGradient id="paint39_linear_297_1168" x1="110.864" y1="112.993" x2="113.105" y2="127.184" gradientUnits="userSpaceOnUse">
<stop stop-color="#FF928E"/>
<stop offset="1" stop-color="#FEB3B1"/>
</linearGradient>
<linearGradient id="paint40_linear_297_1168" x1="115.879" y1="176.095" x2="128.834" y2="188.869" gradientUnits="userSpaceOnUse">
<stop stop-color="#09005D"/>
<stop offset="1" stop-color="#1A0F91"/>
</linearGradient>
<linearGradient id="paint41_linear_297_1168" x1="106.881" y1="113.622" x2="109.122" y2="127.813" gradientUnits="userSpaceOnUse">
<stop stop-color="#FF928E"/>
<stop offset="1" stop-color="#FEB3B1"/>
</linearGradient>
<linearGradient id="paint42_linear_297_1168" x1="-2323.06" y1="-2414.97" x2="-2282.43" y2="-2371.63" gradientUnits="userSpaceOnUse">
<stop stop-color="#09005D"/>
<stop offset="1" stop-color="#1A0F91"/>
</linearGradient>
<linearGradient id="paint43_linear_297_1168" x1="3588.3" y1="-921.233" x2="3531.89" y2="-902.788" gradientUnits="userSpaceOnUse">
<stop stop-color="#09005D"/>
<stop offset="1" stop-color="#1A0F91"/>
</linearGradient>
<linearGradient id="paint44_linear_297_1168" x1="325.005" y1="271.646" x2="324.879" y2="280.714" gradientUnits="userSpaceOnUse">
<stop stop-color="#09005D"/>
<stop offset="1" stop-color="#1A0F91"/>
</linearGradient>
<linearGradient id="paint45_linear_297_1168" x1="307.428" y1="222.269" x2="328.029" y2="271.922" gradientUnits="userSpaceOnUse">
<stop stop-color="#FF928E"/>
<stop offset="1" stop-color="#FEB3B1"/>
</linearGradient>
<linearGradient id="paint46_linear_297_1168" x1="343.81" y1="222.162" x2="323.209" y2="271.815" gradientUnits="userSpaceOnUse">
<stop stop-color="#143669"/>
<stop offset="1" stop-color="#143669"/>
</linearGradient>
<linearGradient id="paint47_linear_297_1168" x1="325.657" y1="228.717" x2="324.588" y2="271.914" gradientUnits="userSpaceOnUse">
<stop stop-color="#09005D"/>
<stop offset="1" stop-color="#1A0F91"/>
</linearGradient>
<linearGradient id="paint48_linear_297_1168" x1="345.378" y1="234.479" x2="333.493" y2="266.599" gradientUnits="userSpaceOnUse">
<stop stop-color="#FF928E"/>
<stop offset="1" stop-color="#FEB3B1"/>
</linearGradient>
<linearGradient id="paint49_linear_297_1168" x1="321.66" y1="224.795" x2="309.769" y2="256.932" gradientUnits="userSpaceOnUse">
<stop stop-color="#FF928E"/>
<stop offset="1" stop-color="#FEB3B1"/>
</linearGradient>
<linearGradient id="paint50_linear_297_1168" x1="336.659" y1="236.105" x2="313.177" y2="279.423" gradientUnits="userSpaceOnUse">
<stop stop-color="#E1473D"/>
<stop offset="1" stop-color="#E9605A"/>
</linearGradient>
<linearGradient id="paint51_linear_297_1168" x1="320.009" y1="228.858" x2="320.009" y2="246.584" gradientUnits="userSpaceOnUse">
<stop stop-color="#E1473D"/>
<stop offset="1" stop-color="#E9605A"/>
</linearGradient>
<linearGradient id="paint52_linear_297_1168" x1="326.142" y1="206.341" x2="324.199" y2="225.734" gradientUnits="userSpaceOnUse">
<stop stop-color="#FF928E"/>
<stop offset="1" stop-color="#FEB3B1"/>
</linearGradient>
<linearGradient id="paint53_linear_297_1168" x1="325.534" y1="199.927" x2="326.87" y2="212.533" gradientUnits="userSpaceOnUse">
<stop stop-color="#FF928E"/>
<stop offset="1" stop-color="#FEB3B1"/>
</linearGradient>
<linearGradient id="paint54_linear_297_1168" x1="325.04" y1="271.647" x2="324.913" y2="280.714" gradientUnits="userSpaceOnUse">
<stop stop-color="#09005D"/>
<stop offset="1" stop-color="#1A0F91"/>
</linearGradient>
<linearGradient id="paint55_linear_297_1168" x1="320.408" y1="200.471" x2="321.744" y2="213.076" gradientUnits="userSpaceOnUse">
<stop stop-color="#17191C"/>
<stop offset="1" stop-color="#143669"/>
</linearGradient>
<linearGradient id="paint56_linear_297_1168" x1="325.538" y1="225.377" x2="324.845" y2="258.456" gradientUnits="userSpaceOnUse">
<stop stop-color="#4042E2"/>
<stop offset="1" stop-color="#4F52FF"/>
</linearGradient>
<clipPath id="clip0_297_1168">
<rect width="449" height="300" fill="white"/>
</clipPath>
</defs>
</svg>
